<svg width="33" height="31" viewBox="0 0 33 31" fill="none" xmlns="http://www.w3.org/2000/svg">
<path d="M12.0477 30C12.8104 30 13.4287 29.3817 13.4287 28.6191C13.4287 27.8564 12.8104 27.2381 12.0477 27.2381C11.285 27.2381 10.6667 27.8564 10.6667 28.6191C10.6667 29.3817 11.285 30 12.0477 30Z" stroke="white" stroke-width="2" stroke-linecap="round" stroke-linejoin="round"/>
<path d="M27.2381 30C28.0008 30 28.6191 29.3817 28.6191 28.6191C28.6191 27.8564 28.0008 27.2381 27.2381 27.2381C26.4755 27.2381 25.8572 27.8564 25.8572 28.6191C25.8572 29.3817 26.4755 30 27.2381 30Z" stroke="white" stroke-width="2" stroke-linecap="round" stroke-linejoin="round"/>
<path d="M1 1H6.52381L10.2248 19.491C10.351 20.1267 10.6969 20.6978 11.2018 21.1043C11.7068 21.5108 12.3386 21.7267 12.9867 21.7143H26.4095C27.0576 21.7267 27.6894 21.5108 28.1943 21.1043C28.6993 20.6978 29.0451 20.1267 29.1714 19.491L31.381 7.90476H7.90476" stroke="white" stroke-width="2" stroke-linecap="round" stroke-linejoin="round"/>
</svg>
