<svg width="72" height="72" viewBox="0 0 72 72" fill="none" xmlns="http://www.w3.org/2000/svg">
<circle cx="36" cy="36" r="36" fill="#FFCB47"/>
<path d="M28.0477 51C28.8104 51 29.4287 50.3817 29.4287 49.6191C29.4287 48.8564 28.8104 48.2381 28.0477 48.2381C27.285 48.2381 26.6667 48.8564 26.6667 49.6191C26.6667 50.3817 27.285 51 28.0477 51Z" stroke="white" stroke-width="2" stroke-linecap="round" stroke-linejoin="round"/>
<path d="M43.2381 51C44.0008 51 44.6191 50.3817 44.6191 49.6191C44.6191 48.8564 44.0008 48.2381 43.2381 48.2381C42.4755 48.2381 41.8572 48.8564 41.8572 49.6191C41.8572 50.3817 42.4755 51 43.2381 51Z" stroke="white" stroke-width="2" stroke-linecap="round" stroke-linejoin="round"/>
<path d="M17 22H22.5238L26.2248 40.491C26.351 41.1267 26.6969 41.6978 27.2018 42.1043C27.7068 42.5108 28.3386 42.7267 28.9867 42.7143H42.4095C43.0576 42.7267 43.6894 42.5108 44.1943 42.1043C44.6993 41.6978 45.0451 41.1267 45.1714 40.491L47.381 28.9048H23.9048" stroke="white" stroke-width="2" stroke-linecap="round" stroke-linejoin="round"/>
</svg>
