<svg width="21" height="22" viewBox="0 0 21 22" fill="none" xmlns="http://www.w3.org/2000/svg">
<path d="M21 1.31299C21 0.984863 20.8594 0.703613 20.625 0.469238C20.3906 0.281738 20.1094 0.141113 19.8281 0.141113H1.17188C0.796875 0.141113 0.515625 0.281738 0.328125 0.469238C0.09375 0.703613 0 0.984863 0 1.31299V19.9692C0 20.2974 0.09375 20.5786 0.328125 20.813C0.515625 21.0474 0.796875 21.1411 1.17188 21.1411H11.2031V12.9849H8.48438V9.84424H11.2031V7.50049C11.2031 6.18799 11.5781 5.15674 12.3281 4.40674C13.0781 3.70361 14.0625 3.32861 15.2812 3.32861C16.2188 3.32861 17.0625 3.37549 17.7188 3.42236V6.28174H16.0312C15.4219 6.28174 15 6.42236 14.7656 6.70361C14.5781 6.93799 14.4844 7.31299 14.4844 7.82861V9.84424H17.625L17.2031 12.9849H14.4844V21.1411H19.8281C20.1562 21.1411 20.4375 21.0474 20.6719 20.813C20.8594 20.5786 21 20.2974 21 19.9692V1.31299Z" fill="#FFCB47"/>
</svg>
