<svg width="1920" height="309" viewBox="0 0 1920 309" fill="none" xmlns="http://www.w3.org/2000/svg">
<rect width="1920" height="309" fill="white"/>
<path fill-rule="evenodd" clip-rule="evenodd" d="M480.809 209.835C544.597 239.215 584.215 310.502 596.63 379.625C608.256 444.351 559.612 500.889 544.584 564.911C527.901 635.987 561.215 729.439 503.904 774.666C446.81 819.72 364.013 764.576 291.283 764.799C219.949 765.018 138.084 821.06 82.8159 775.959C26.7892 730.239 69.4666 636.397 48.9573 567.052C29.8585 502.477 -48.6953 452.678 -32.0995 387.415C-15.5772 322.44 64.2787 298.563 124.647 269.401C174.503 245.316 228.424 244.316 283.035 235.182C350.233 223.944 418.927 181.331 480.809 209.835Z" fill="#FFCB47"/>
</svg>
