<svg width="332" height="370" viewBox="0 0 332 370" fill="none" xmlns="http://www.w3.org/2000/svg">
<path d="M17.0542 234.388H2.34521V239.032H17.0542V234.388Z" fill="#7BAABF"/>
<path d="M231.884 370.438C231.815 370.438 231.745 370.438 231.675 370.426C230.747 370.31 230.073 369.463 230.189 368.534L247.197 227.191C247.313 226.262 248.149 225.6 249.089 225.705C250.018 225.821 261.093 226.668 260.989 227.597L233.568 368.94C233.463 369.811 232.732 370.438 231.884 370.438Z" fill="#BADAEF"/>
<path d="M317.967 370.437C318.037 370.437 318.107 370.437 318.176 370.426C319.105 370.31 319.778 369.462 319.662 368.534L302.643 227.19C302.527 226.262 301.691 225.6 300.751 225.704C299.822 225.82 288.747 226.668 288.851 227.597L316.272 368.94C316.377 369.811 317.108 370.437 317.967 370.437Z" fill="#BADAEF"/>
<path d="M303.455 225.693H246.396V229.083H303.455V225.693Z" fill="#B4D9ED"/>
<path d="M303.455 255.053H246.396V258.443H303.455V255.053Z" fill="#BADAEF"/>
<path d="M303.56 225.89H246.268C244.794 225.89 243.61 224.694 243.61 223.232C243.61 221.757 244.805 220.573 246.268 220.573H303.56C305.034 220.573 306.219 221.769 306.219 223.232C306.23 224.706 305.034 225.89 303.56 225.89Z" fill="#69AAEC"/>
<path d="M268.628 153.553C268.628 153.553 203.128 65.0666 223.676 46.1666C244.225 27.2667 274.281 93.8344 268.628 153.553Z" fill="#1D9F9D"/>
<path d="M229.876 56.6149C236.273 66.2855 241.984 76.4204 246.918 86.9152C251.55 96.7831 255.532 106.964 258.876 117.343C261.952 126.886 264.506 136.603 266.584 146.401C268.43 155.143 269.893 163.954 270.984 172.824C271.902 180.242 272.552 187.695 273.086 195.149C273.144 195.961 273.248 196.786 273.295 197.598C273.318 198.051 274.026 198.051 274.003 197.598C273.84 194.162 273.771 190.714 273.538 187.278C273.271 183.412 272.935 179.557 272.505 175.703C271.53 166.938 270.218 158.219 268.523 149.559C266.608 139.796 264.216 130.137 261.291 120.64C258.098 110.285 254.302 100.115 249.809 90.2471C245.026 79.7407 239.512 69.5361 233.126 59.9236C232.291 58.6698 231.455 57.4392 230.596 56.197C230.282 55.7791 229.586 56.1738 229.876 56.6149Z" fill="#0E7C74"/>
<path d="M264.901 110.436C264.634 114.429 264.599 118.435 264.437 122.44C264.367 124.274 264.297 126.108 264.216 127.931C264.146 129.545 263.856 131.321 264.135 132.911C264.193 133.225 264.634 133.178 264.715 132.911C264.959 132.168 264.982 131.309 265.064 130.543C265.156 129.672 265.191 128.802 265.249 127.931C265.365 126.097 265.481 124.274 265.551 122.44C265.702 118.446 265.841 114.429 265.598 110.436C265.574 109.995 264.936 109.995 264.901 110.436Z" fill="#0E7C74"/>
<path d="M254.696 80.124C254.429 84.1176 254.395 88.1228 254.232 92.128C254.162 93.9623 254.093 95.7965 254.011 97.6192C253.942 99.2329 253.652 101.009 253.93 102.6C253.988 102.913 254.429 102.867 254.511 102.6C254.754 101.857 254.778 100.998 254.859 100.231C254.952 99.3606 254.987 98.4899 255.045 97.6192C255.161 95.7849 255.277 93.9623 255.347 92.128C255.497 88.1344 255.637 84.1176 255.393 80.124C255.37 79.6712 254.731 79.6712 254.696 80.124Z" fill="#0E7C74"/>
<path d="M239.744 52.7953C239.976 56.1968 240.208 59.5983 240.266 62.9999C240.289 64.7297 240.301 66.4711 240.278 68.2008C240.255 69.8494 239.976 71.6604 240.266 73.2973C240.324 73.6108 240.765 73.5643 240.847 73.2973C241.357 71.7301 241.265 69.8377 241.323 68.2008C241.381 66.4246 241.416 64.6484 241.381 62.8722C241.311 59.4823 241.125 56.0343 240.429 52.7024C240.347 52.3193 239.721 52.4006 239.744 52.7953Z" fill="#0E7C74"/>
<path d="M228.158 68.7118C230.944 70.6157 233.742 72.4964 236.435 74.5281C237.828 75.5845 239.221 76.6526 240.58 77.7671C241.253 78.3127 241.903 78.87 242.565 79.4156C243.192 79.9264 243.83 80.5185 244.55 80.9016C244.805 81.0409 245.142 80.7507 244.968 80.4836C244.051 79.137 242.565 78.0689 241.323 77.0241C239.976 75.8864 238.618 74.7835 237.213 73.727C234.462 71.649 231.606 69.6289 228.518 68.1081C228.1 67.9108 227.775 68.4564 228.158 68.7118Z" fill="#0E7C74"/>
<path d="M230.178 74.0172C232.964 75.9211 235.762 77.8018 238.455 79.8334C239.848 80.8899 241.241 81.9579 242.6 83.0724C243.273 83.6181 243.923 84.1753 244.585 84.7209C245.212 85.2318 245.85 85.8238 246.57 86.2069C246.825 86.3462 247.162 86.056 246.988 85.789C246.071 84.4423 244.585 83.3743 243.343 82.3294C241.996 81.1917 240.638 80.0888 239.233 79.0324C236.482 76.9543 233.626 74.9343 230.538 73.4135C230.131 73.2045 229.806 73.7618 230.178 74.0172Z" fill="#0E7C74"/>
<path d="M241.427 100.73C244.213 102.634 247.011 104.515 249.704 106.547C251.098 107.603 252.491 108.671 253.849 109.786C254.522 110.331 255.172 110.888 255.834 111.434C256.461 111.945 257.1 112.537 257.819 112.92C258.075 113.059 258.411 112.769 258.237 112.502C257.32 111.155 255.834 110.087 254.592 109.043C253.245 107.905 251.887 106.802 250.482 105.746C247.731 103.667 244.875 101.647 241.787 100.127C241.369 99.9177 241.044 100.475 241.427 100.73Z" fill="#0E7C74"/>
<path d="M285.438 135.187C285.438 135.187 348.592 45.0057 327.545 26.6514C306.497 8.30871 278.228 75.6426 285.438 135.187Z" fill="#1D9F9D"/>
<path d="M320.916 36.8674C314.508 46.6425 308.993 56.9515 304.245 67.6321C299.81 77.6277 296.072 87.9135 292.984 98.3967C290.14 108.044 287.841 117.854 286.053 127.757C284.463 136.591 283.255 145.484 282.419 154.423C281.723 161.888 281.282 169.388 281.212 176.876C281.2 177.7 281.247 178.524 281.235 179.348C281.224 179.801 281.932 179.801 281.943 179.348C282.013 175.935 282.269 172.499 282.478 169.097C282.71 165.266 282.988 161.435 283.325 157.604C284.08 148.874 285.194 140.167 286.68 131.53C288.352 121.778 290.5 112.096 293.158 102.553C296.06 92.1277 299.578 81.8883 303.734 71.9043C308.169 61.2469 313.428 50.9495 319.337 41.0352C320.092 39.7814 320.858 38.5276 321.624 37.2854C321.903 36.8326 321.206 36.4263 320.916 36.8674Z" fill="#0E7C74"/>
<path d="M287.33 92.0001C287.191 95.9937 287.435 99.9989 287.69 103.992C287.806 105.827 287.969 107.649 288.131 109.484C288.201 110.308 288.271 111.144 288.375 111.98C288.468 112.792 288.526 113.698 288.805 114.464C288.898 114.719 289.339 114.789 289.385 114.464C289.617 112.862 289.292 111.097 289.176 109.484C289.037 107.661 288.932 105.827 288.816 103.992C288.549 99.9989 288.41 95.9937 288.039 92.0001C287.992 91.5589 287.354 91.5473 287.33 92.0001Z" fill="#0E7C74"/>
<path d="M296.734 61.4214C296.594 65.415 296.838 69.4202 297.094 73.4138C297.21 75.248 297.372 77.0707 297.535 78.905C297.604 79.7292 297.674 80.5651 297.779 81.401C297.871 82.2136 297.929 83.1191 298.208 83.8853C298.301 84.1407 298.742 84.2104 298.789 83.8853C299.021 82.2833 298.696 80.5186 298.58 78.905C298.44 77.0823 298.336 75.248 298.22 73.4138C297.953 69.4202 297.813 65.415 297.442 61.4214C297.395 60.9802 296.745 60.9686 296.734 61.4214Z" fill="#0E7C74"/>
<path d="M310.978 33.6287C310.363 36.9722 310.27 40.4202 310.293 43.8217C310.305 45.5979 310.375 47.3741 310.491 49.1504C310.595 50.7757 310.549 52.6796 311.094 54.2352C311.187 54.4906 311.629 54.5603 311.675 54.2352C311.919 52.6332 311.617 50.8918 311.547 49.2781C311.466 47.5018 311.431 45.7256 311.42 43.9494C311.385 40.5363 311.536 37.1347 311.675 33.7216C311.687 33.3385 311.048 33.234 310.978 33.6287Z" fill="#0E7C74"/>
<path d="M323.307 48.7207C320.289 50.2995 317.526 52.3776 314.856 54.4905C313.486 55.5818 312.151 56.7195 310.827 57.8804C309.585 58.9833 308.076 60.1094 307.17 61.5257C307.008 61.7927 307.333 62.083 307.588 61.9437C308.981 61.1542 310.166 59.8424 311.373 58.7976C312.708 57.6598 314.066 56.5453 315.436 55.4425C318.106 53.3064 320.881 51.3212 323.656 49.3244C324.027 49.0574 323.714 48.5001 323.307 48.7207Z" fill="#0E7C74"/>
<path d="M321.427 54.0727C318.408 55.6515 315.645 57.7296 312.975 59.8425C311.605 60.9338 310.27 62.0715 308.947 63.2324C307.704 64.3353 306.195 65.4614 305.29 66.8777C305.127 67.1447 305.452 67.435 305.708 67.2957C307.101 66.5062 308.285 65.1944 309.492 64.1495C310.827 63.0118 312.186 61.8973 313.556 60.7945C316.226 58.6583 319 56.6732 321.775 54.6764C322.135 54.4093 321.833 53.8521 321.427 54.0727Z" fill="#0E7C74"/>
<path d="M310.885 81.0644C307.867 82.6432 305.104 84.7213 302.434 86.8342C301.064 87.9255 299.729 89.0632 298.405 90.2241C297.163 91.327 295.654 92.4531 294.749 93.8694C294.586 94.1364 294.911 94.4267 295.166 94.2874C296.56 93.4979 297.744 92.1861 298.951 91.1412C300.286 90.0035 301.644 88.889 303.014 87.7861C305.684 85.65 308.459 83.6648 311.234 81.668C311.605 81.4126 311.292 80.8554 310.885 81.0644Z" fill="#0E7C74"/>
<path d="M279.064 111.446C279.064 111.446 215.503 21.555 236.47 3.10785C257.436 -15.3393 286.007 51.8669 279.064 111.446Z" fill="#259E78"/>
<path d="M242.437 13.6957C248.636 23.5288 254.139 33.803 258.841 44.4255C263.252 54.3747 266.99 64.6257 270.102 75.0508C272.981 84.6749 275.314 94.4616 277.183 104.329C278.832 113.094 280.097 121.918 280.991 130.787C281.746 138.24 282.233 145.705 282.605 153.181C282.64 153.982 282.733 154.783 282.756 155.573C282.768 156.026 283.476 156.026 283.464 155.573C283.383 152.102 283.383 148.642 283.22 145.183C283.046 141.352 282.791 137.52 282.442 133.689C281.665 124.924 280.539 116.194 279.041 107.522C277.346 97.7006 275.152 87.972 272.435 78.3943C269.475 67.9924 265.911 57.7646 261.65 47.8154C257.088 37.1929 251.806 26.849 245.606 17.074C244.794 15.797 243.981 14.5316 243.145 13.2778C242.855 12.8482 242.158 13.2429 242.437 13.6957Z" fill="#0E7C74"/>
<path d="M276.278 68.2708C275.918 72.2528 275.802 76.2696 275.558 80.2632C275.442 82.0975 275.349 83.9202 275.221 85.7544C275.117 87.3565 274.792 89.1327 275.036 90.7348C275.082 91.0599 275.535 90.9902 275.616 90.7348C275.872 89.9918 275.918 89.1444 276.011 88.3665C276.115 87.4958 276.173 86.6251 276.255 85.7544C276.417 83.9318 276.568 82.0975 276.673 80.2632C276.905 76.2813 277.137 72.2644 276.974 68.2708C276.963 67.8181 276.313 67.8297 276.278 68.2708Z" fill="#0E7C74"/>
<path d="M266.735 37.7268C266.375 41.7088 266.259 45.7256 266.015 49.7192C265.899 51.5535 265.806 53.3762 265.679 55.2104C265.574 56.8125 265.249 58.5887 265.493 60.1908C265.539 60.5159 265.992 60.4462 266.073 60.1908C266.329 59.4478 266.375 58.6003 266.468 57.8225C266.573 56.9518 266.631 56.0811 266.712 55.2104C266.874 53.3878 267.025 51.5535 267.13 49.7192C267.362 45.7373 267.594 41.7204 267.432 37.7268C267.42 37.2741 266.782 37.2857 266.735 37.7268Z" fill="#0E7C74"/>
<path d="M252.386 10.0965C252.537 13.4981 252.711 16.9112 252.688 20.3243C252.677 22.0541 252.653 23.7955 252.584 25.5253C252.514 27.1738 252.212 28.9732 252.468 30.6102C252.514 30.9352 252.967 30.8656 253.048 30.6102C253.315 29.8556 253.361 28.9849 253.443 28.1838C253.524 27.3015 253.57 26.4076 253.628 25.5137C253.733 23.7375 253.803 21.9612 253.803 20.185C253.803 16.7951 253.698 13.3471 253.071 10.0037C253.002 9.60894 252.363 9.70182 252.386 10.0965Z" fill="#0E7C74"/>
<path d="M240.452 25.7461C243.238 27.7312 246.024 29.6932 248.706 31.8177C250.041 32.8858 251.376 33.9538 252.688 35.0683C253.338 35.6256 253.988 36.1944 254.638 36.7633C255.253 37.2857 255.88 37.8894 256.589 38.2841C256.844 38.4234 257.169 38.1332 257.006 37.8662C256.124 36.4963 254.65 35.3934 253.442 34.3253C252.096 33.1412 250.726 31.9802 249.31 30.8658C246.639 28.7645 243.853 26.7096 240.835 25.1424C240.405 24.9334 240.092 25.4906 240.452 25.7461Z" fill="#0E7C74"/>
<path d="M242.367 31.0864C245.153 33.0716 247.94 35.0335 250.621 37.158C251.957 38.2261 253.292 39.2942 254.603 40.4086C255.254 40.9659 255.904 41.5347 256.554 42.1036C257.169 42.626 257.796 43.2297 258.504 43.6244C258.76 43.7637 259.085 43.4735 258.922 43.2065C258.04 41.8366 256.565 40.7337 255.358 39.6657C254.011 38.4815 252.641 37.3206 251.225 36.2061C248.555 34.1048 245.769 32.05 242.75 30.4827C242.309 30.2737 241.996 30.831 242.367 31.0864Z" fill="#0E7C74"/>
<path d="M253.024 58.0433C255.811 60.0285 258.597 61.9905 261.279 64.115C262.614 65.183 263.949 66.2511 265.261 67.3656C265.911 67.9228 266.561 68.4917 267.211 69.0605C267.826 69.5829 268.453 70.1866 269.161 70.5813C269.417 70.7206 269.742 70.4304 269.579 70.1634C268.697 68.7935 267.223 67.6906 266.015 66.6226C264.669 65.4384 263.299 64.2775 261.882 63.163C259.212 61.0617 256.426 59.0069 253.408 57.4396C252.966 57.219 252.653 57.7763 253.024 58.0433Z" fill="#0E7C74"/>
<path d="M273.167 137.671C273.167 137.671 312.278 83.9203 299.775 72.6012C287.272 61.2937 269.463 101.636 273.167 137.671Z" fill="#3FC7A1"/>
<path d="M295.515 78.6147C287.736 89.8525 281.978 102.414 277.88 115.428C274.421 126.422 272.168 137.776 270.891 149.234C270.346 154.203 269.835 159.288 269.997 164.291C270.009 164.756 270.659 164.732 270.706 164.291C271.182 159.949 271.402 155.573 271.867 151.231C272.424 145.949 273.202 140.69 274.2 135.477C276.557 123.194 280.144 111.132 285.159 99.6624C288.282 92.5111 292.02 85.6151 296.223 79.0327C296.513 78.5799 295.817 78.1852 295.515 78.6147Z" fill="#0E7C74"/>
<path d="M274.78 111.62C274.653 114.046 274.757 116.484 274.873 118.911C274.92 120.002 275.001 121.093 275.082 122.184C275.152 123.171 275.164 124.228 275.431 125.191C275.489 125.4 275.767 125.342 275.79 125.145C275.907 124.135 275.756 123.078 275.709 122.08C275.651 120.989 275.605 119.886 275.547 118.794C275.431 116.403 275.396 114.011 275.21 111.632C275.187 111.341 274.792 111.341 274.78 111.62Z" fill="#0E7C74"/>
<path d="M280.783 93.2543C280.655 95.6806 280.759 98.1185 280.876 100.545C280.922 101.636 281.003 102.727 281.084 103.819C281.154 104.806 281.166 105.862 281.433 106.826C281.491 107.034 281.769 106.976 281.793 106.779C281.909 105.769 281.758 104.713 281.711 103.714C281.653 102.623 281.607 101.52 281.549 100.429C281.433 98.0373 281.398 95.6458 281.212 93.2659C281.189 92.9872 280.806 92.9872 280.783 93.2543Z" fill="#0E7C74"/>
<path d="M289.687 76.6295C289.28 78.6495 289.188 80.7276 289.164 82.7708C289.153 83.8505 289.176 84.9301 289.222 86.0098C289.269 87.0082 289.246 88.0995 289.536 89.0747C289.594 89.2836 289.873 89.2256 289.896 89.0282C290.023 88.0414 289.884 87.0082 289.861 86.0214C289.838 84.9418 289.826 83.8621 289.838 82.7824C289.861 80.7508 289.989 78.7192 290.105 76.6875C290.116 76.4554 289.745 76.3973 289.687 76.6295Z" fill="#0E7C74"/>
<path d="M296.966 85.8707C295.097 86.8111 293.379 88.0417 291.73 89.3187C290.917 89.9456 290.116 90.5957 289.339 91.2691C288.572 91.9192 287.667 92.5925 287.098 93.4284C286.994 93.5909 287.202 93.765 287.353 93.6838C288.201 93.2078 288.921 92.4532 289.664 91.8379C290.499 91.1414 291.359 90.468 292.229 89.8063C293.843 88.5641 295.526 87.4148 297.198 86.2538C297.407 86.0797 297.221 85.7546 296.966 85.8707Z" fill="#0E7C74"/>
<path d="M295.77 89.0864C293.901 90.0267 292.183 91.2573 290.534 92.5343C289.722 93.1612 288.921 93.8113 288.143 94.4847C287.377 95.1348 286.471 95.8081 285.902 96.644C285.798 96.8065 286.007 96.9807 286.158 96.8994C287.005 96.4234 287.725 95.6688 288.468 95.0535C289.304 94.357 290.163 93.6836 291.033 93.0219C292.647 91.7797 294.331 90.6304 296.002 89.4695C296.211 89.2953 296.014 88.9587 295.77 89.0864Z" fill="#0E7C74"/>
<path d="M289.118 105.27C287.249 106.21 285.531 107.441 283.882 108.718C283.07 109.345 282.269 109.995 281.491 110.668C280.724 111.318 279.819 111.991 279.25 112.827C279.146 112.99 279.355 113.164 279.505 113.083C280.353 112.607 281.073 111.852 281.816 111.237C282.652 110.54 283.511 109.867 284.381 109.205C285.995 107.963 287.678 106.814 289.35 105.653C289.548 105.479 289.362 105.142 289.118 105.27Z" fill="#0E7C74"/>
<path d="M299.427 176.759L299.148 178.617L298.568 182.576L292.903 220.573H259.131L253.477 182.576L252.885 178.617L252.607 176.759H299.427Z" fill="#F7BF38"/>
<path d="M299.149 178.617L298.568 182.576H253.478L252.885 178.617H299.149Z" fill="#F49A38"/>
<path d="M300.089 180.324H251.945C250.401 180.324 249.147 179.07 249.147 177.526C249.147 175.982 250.401 174.728 251.945 174.728H300.089C301.633 174.728 302.887 175.982 302.887 177.526C302.887 179.081 301.633 180.324 300.089 180.324Z" fill="#F7BF38"/>
<path d="M54.343 334.437C38.357 334.437 24.1821 337.177 18.807 338.349C17.4603 338.639 16.5315 339.847 16.5664 341.228C16.7521 346.894 17.4835 362.009 20.351 377.461C23.8338 396.175 33.632 408.678 44.5796 408.678H54.343H54.3662H64.1297C75.0772 408.678 84.8755 396.175 88.3583 377.461C91.2258 362.021 91.9571 346.917 92.1429 341.24C92.1893 339.858 91.249 338.651 89.8907 338.361C84.3995 337.188 69.8879 334.437 54.343 334.437Z" fill="#69AAEC"/>
<g opacity="0.55">
<path opacity="0.55" d="M79.3263 220.561C78.2699 218.564 76.2034 216.939 73.9512 217.102C72.3607 217.218 70.9792 218.158 69.4584 218.646C67.9492 219.133 65.9292 218.936 65.2675 217.485C64.9308 216.765 65.0469 215.894 65.3487 215.163C65.964 213.689 67.3571 212.574 68.936 212.295C70.5033 212.017 72.2098 212.597 73.2895 213.77C71.7222 210.206 68.1582 207.687 64.3271 207.013C61.0649 206.444 55.5853 207.118 53.0197 209.486C50.9068 211.425 51.2667 214.931 51.9864 217.833C51.5569 218.17 51.0925 218.472 50.5933 218.692C48.9796 219.412 47.1802 219.667 45.5201 220.283C41.0389 221.954 38.4036 227.039 39.3439 231.671C40.6558 238.045 46.4372 244.836 52.8803 245.777C51.0112 245.51 50.93 241.052 52.3463 238.59C53.7627 236.129 56.6766 235.665 56.8159 240.332C56.8391 241.11 56.6882 241.876 56.7346 242.642C56.8972 244.976 58.9868 246.81 61.2506 247.402C63.5028 247.994 65.8944 247.623 68.193 247.17C67.4268 245.73 66.1498 244.651 65.1049 243.397C64.0601 242.155 63.201 240.552 63.5145 238.95C64.629 239.113 65.0585 240.436 65.6622 241.388C67.6358 244.5 71.7919 243.014 74.6362 242.34C77.91 241.562 81.7643 240.692 84.2951 242.909C83.8656 240.599 83.4244 238.265 82.4028 236.141C81.3812 234.028 79.7094 232.124 77.4921 231.346C76.1454 230.882 74.6362 230.835 73.3824 230.151C70.6542 228.653 71.908 225.913 74.6362 225.762C77.0625 225.623 80.3247 227.237 80.9632 229.686C80.1738 226.61 80.9052 223.556 79.3263 220.561Z" fill="#42C6A1"/>
<path opacity="0.55" d="M52.3811 218.739C56.9319 218.948 60.4263 225.588 63.0152 228.653C65.1281 231.161 67.4499 233.529 70.5148 234.794C70.8282 234.922 71.0024 234.434 70.7354 234.272C66.498 231.555 63.6537 228.096 60.5424 224.218C58.4179 221.56 56.1425 218.135 52.3811 218.251C52.056 218.263 52.0676 218.727 52.3811 218.739Z" fill="#6EE5BD"/>
<path opacity="0.55" d="M49.3627 234.086C49.3278 233.355 49.5136 232.693 49.9199 232.078C50.036 231.857 49.7342 231.578 49.5484 231.799C48.9331 232.519 48.7242 233.157 48.6197 234.086C48.5732 234.55 49.3511 234.574 49.3627 234.086Z" fill="#659AC1"/>
<path opacity="0.55" d="M51.2201 229.651C52.8918 226.958 58.2205 223.986 56.839 220.178C56.7229 219.865 56.305 219.923 56.2702 220.259C56.038 222.744 55.1324 224.253 53.4259 226.052C52.4391 227.097 51.5568 228.177 50.9415 229.489C50.837 229.674 51.104 229.825 51.2201 229.651Z" fill="#6EE5BD"/>
<path opacity="0.55" d="M59.5092 232.217C60.2638 229.988 61.773 226.993 60.4263 224.741C60.2638 224.462 59.7414 224.648 59.8691 224.973C60.7978 227.33 60.1129 229.86 59.4744 232.217C59.4744 232.229 59.5092 232.229 59.5092 232.217Z" fill="#6EE5BD"/>
<path opacity="0.55" d="M73.8003 222.929C71.908 222.349 70.1317 222.488 68.2278 222.999C65.5461 223.719 63.259 225.309 60.4148 224.253C59.9272 224.067 59.6834 224.787 60.0781 225.054C61.4944 226.018 63.0385 225.809 64.6173 225.309C67.7286 224.323 70.3407 222.5 73.7771 223.034C73.8351 223.046 73.8699 222.941 73.8003 222.929Z" fill="#6EE5BD"/>
<path opacity="0.55" d="M63.3866 211.483C62.0283 212.458 60.9371 213.654 60.1592 215.14C59.8226 215.778 59.5904 216.463 59.2885 217.113C58.6848 218.437 57.7097 219.191 56.5255 220.016C55.7477 220.561 56.4907 221.85 57.2801 221.293C58.5688 220.387 59.9735 219.215 60.403 217.636C61.0415 215.267 61.7265 213.491 63.642 211.796C63.8045 211.657 63.5724 211.355 63.3866 211.483Z" fill="#6EE5BD"/>
<path opacity="0.55" d="M66.9276 235.618C66.1149 234.074 66.0917 232.67 65.7898 231.033C65.7434 230.777 65.3487 230.789 65.2907 231.033C64.8727 232.704 65.5809 234.492 66.4168 235.932C66.6025 236.269 67.1017 235.967 66.9276 235.618Z" fill="#6EE5BD"/>
</g>
<path d="M69.8066 185.478C68.2974 181.148 65.6041 176.028 60.4031 178.896C53.6929 182.587 55.8174 193.523 55.7014 199.386C55.0861 230.139 53.3795 316.199 56.6881 346.824C56.7926 347.753 58.1509 347.799 58.1741 346.824C58.5572 326.868 57.8026 252.406 57.6749 232.449C57.6169 223.127 57.6517 213.805 57.7794 204.482C57.8491 199.305 57.8955 194.115 58.0696 188.938C58.1393 186.825 57.7562 183.609 59.811 182.169C62.6553 180.184 67.241 182.994 68.6689 185.942C68.9824 186.581 70.0388 186.14 69.8066 185.478Z" fill="#0E7C74"/>
<path d="M38.4615 175.912C44.9975 191.387 45.636 211.436 47.4935 227.933C49.2813 243.71 49.9314 330.722 51.4871 346.522C51.58 347.405 52.8802 347.439 52.8918 346.522C53.066 328.377 51.0924 238.916 48.8053 220.933C46.9014 205.957 46.1352 188.926 39.9475 175.041C39.5063 174.008 38.0435 174.902 38.4615 175.912Z" fill="#0E7C74"/>
<path d="M30.4743 199.247C36.2325 202.938 36.6621 211.088 37.7417 216.997C38.7982 222.767 39.7385 228.56 40.5976 234.365C42.3158 245.939 43.1633 335.737 45.0207 347.288C45.1484 348.113 46.4603 347.904 46.4487 347.091C46.2978 332.452 43.9179 239.473 41.3174 225.089C39.7733 216.579 39.6108 202.996 31.2405 197.923C30.393 197.424 29.65 198.713 30.4743 199.247Z" fill="#0E7C74"/>
<path d="M73.1734 227.434C66.7186 226.354 65.8363 241.888 65.0353 245.637C62.0633 259.452 59.4744 332.092 60.38 346.22C60.4032 346.627 60.9836 346.627 61.0069 346.22C61.5293 339.766 64.5709 226.912 73.1154 227.782C73.3243 227.806 73.3708 227.469 73.1734 227.434Z" fill="#0E7C74"/>
<path d="M90.9589 194.104C90.6223 193.337 90.2043 192.618 89.6819 191.956C89.0782 191.201 88.3236 190.516 87.4065 190.214C86.6171 189.959 85.7696 189.994 84.9453 189.936C83.8424 189.866 82.7628 189.622 81.7295 189.216C80.9517 188.914 80.1275 188.403 80.023 187.579C79.9417 186.929 80.3596 186.314 80.8821 185.919C81.8572 185.164 83.2388 184.99 84.3765 185.466C85.0266 185.745 85.5838 186.209 86.2223 186.523C86.8609 186.825 87.6735 186.952 88.2424 186.534C88.8693 186.082 88.9621 185.141 88.6603 184.421C88.3585 183.713 87.7548 183.179 87.1627 182.68C85.4677 181.24 83.7031 179.836 81.6947 178.884C79.6863 177.92 77.3993 177.421 75.2051 177.851C73.0226 178.292 70.9909 179.778 70.248 181.867C70.0042 182.552 69.8997 183.295 69.5282 183.922C68.9709 184.851 67.9261 185.373 66.9045 185.733C65.6507 186.174 64.3504 186.453 63.027 186.558C61.866 186.65 60.6471 186.627 59.5906 187.126C58.7315 187.533 58.0698 188.264 57.5358 189.054C56.015 191.329 55.5158 194.196 55.8524 196.913C56.1891 199.63 57.3036 202.207 58.7664 204.517C59.312 205.376 59.9157 206.212 60.7167 206.827C61.5178 207.443 63.5726 208.383 64.571 208.22C65.5346 207.953 64.9541 206.63 64.571 206.108C63.6539 204.842 62.9689 203.298 63.4449 201.812C63.8745 200.465 65.0702 200.872 66.0222 202.126C68.0422 204.784 65.5462 206.05 68.2279 209.741C68.762 210.484 72.1171 212.4 73.0226 212.493C73.7191 212.562 74.9033 213.073 75.5186 212.551C76.4705 211.761 74.8917 210.357 74.4389 209.73C73.8236 208.871 73.3592 207.837 73.2896 206.769C73.2664 206.514 73.4986 204.529 73.4405 204.506C74.4621 205.028 74.2996 206.34 74.6595 207.257C75.3328 208.998 77.7011 209.614 79.3613 209.776C80.9169 209.915 82.4841 209.753 84.0282 210.008C85.3052 210.217 86.5358 210.728 87.5922 211.483C87.9057 211.703 88.2424 211.959 88.6139 211.947C89.4729 211.924 89.6935 210.751 89.6355 209.904C89.3917 206.584 88.6023 202.973 85.9553 200.965C85.491 200.605 84.9685 200.315 84.5738 199.873C84.1907 199.432 83.9585 198.782 84.1907 198.248C84.597 197.331 86.0134 197.412 86.7796 198.062C87.5574 198.701 87.987 199.676 88.73 200.361C89.4729 201.046 90.8196 201.301 91.3769 200.454C91.5278 200.222 91.5975 199.955 91.6439 199.688C91.9457 197.807 91.7019 195.845 90.9589 194.104Z" fill="#42C6A1"/>
<path d="M70.004 185.188C73.8351 186.616 74.7406 193.128 76.1221 196.53C77.0973 198.933 78.2931 201.174 80.1738 202.985C80.3015 203.112 80.4872 202.927 80.3711 202.787C77.1786 199.061 75.9944 194.638 74.2182 190.168C73.3359 187.951 72.4768 185.745 70.0621 184.967C69.9112 184.909 69.8531 185.13 70.004 185.188Z" fill="#83F2D0"/>
<path d="M63.2475 196.693C63.4565 196.077 63.8048 195.59 64.3156 195.218C64.4085 195.137 64.2808 194.974 64.1763 195.044C63.561 195.462 63.2243 195.857 62.9225 196.553C62.818 196.797 63.1547 196.936 63.2475 196.693Z" fill="#83F2D0"/>
<path d="M66.0337 193.651C68.193 191.817 72.7903 191.051 73.0457 187.614C73.0573 187.452 72.8251 187.44 72.7671 187.579C71.641 190.911 68.2162 191.318 65.9176 193.535C65.8479 193.605 65.9524 193.709 66.0337 193.651Z" fill="#83F2D0"/>
<path d="M72.0123 198.004C73.2313 196.356 75.0075 194.464 74.6825 192.269C74.6593 192.107 74.3806 192.142 74.3922 192.304C74.5548 194.429 73.1617 196.321 72.0007 197.993C72.0007 198.004 72.0123 198.016 72.0123 198.004Z" fill="#83F2D0"/>
<path d="M85.99 194.464C84.7362 193.593 83.4011 193.256 81.8803 193.152C79.4888 192.989 76.7954 193.802 74.8451 192.014C74.6361 191.828 74.3807 192.107 74.5432 192.316C75.4139 193.419 76.7142 193.639 78.0608 193.674C80.8122 193.721 83.4243 193.036 85.9668 194.51C85.99 194.522 86.0132 194.475 85.99 194.464Z" fill="#83F2D0"/>
<path d="M80.7659 182.518C79.5353 182.936 78.4092 183.539 77.4572 184.433C77.0393 184.816 76.7026 185.257 76.3311 185.687C75.3443 186.801 74.3691 187.289 72.9644 187.695C72.5233 187.823 72.709 188.52 73.1502 188.392C74.3691 188.02 75.6694 187.544 76.4588 186.5C77.7358 184.828 78.7807 183.528 80.8123 182.715C80.94 182.668 80.8936 182.471 80.7659 182.518Z" fill="#83F2D0"/>
<path d="M76.9233 202.776C76.6911 201.371 76.9233 200.152 77.2716 198.794C77.3064 198.655 77.1091 198.562 77.0394 198.701C76.3893 200.013 76.3777 201.441 76.6447 202.857C76.6795 203.031 76.9581 202.95 76.9233 202.776Z" fill="#83F2D0"/>
<path d="M4.70178 229.872C4.89914 228.607 5.27064 227.353 5.79306 226.18C6.40835 224.822 7.25583 223.522 8.52124 222.709C9.6009 222.024 10.8779 221.745 12.0853 221.351C13.699 220.817 15.2198 220.039 16.6013 219.052C17.6461 218.309 18.691 217.218 18.5285 215.952C18.4008 214.954 17.5417 214.199 16.6245 213.793C14.8831 213.039 12.747 213.306 11.2494 214.455C10.3787 215.117 9.74022 216.022 8.90435 216.73C8.06848 217.427 6.90755 217.926 5.89754 217.52C4.78305 217.079 4.28385 215.709 4.4696 214.525C4.65534 213.34 5.3519 212.319 6.04846 211.344C8.03365 208.546 10.1233 205.783 12.7586 203.589C15.3823 201.383 18.6097 199.757 22.0345 199.572C25.4592 199.386 29.0581 200.826 30.9736 203.67C31.6005 204.599 32.0417 205.667 32.8427 206.456C34.0269 207.629 35.7799 208.012 37.44 208.151C39.4716 208.325 41.5265 208.244 43.5465 207.896C45.3227 207.594 47.1221 207.083 48.8868 207.431C50.3147 207.71 51.5917 208.546 52.683 209.521C55.8291 212.33 57.6634 216.417 58.1974 220.596C58.7431 224.776 58.0581 229.048 56.7579 233.053C56.2819 234.539 55.7014 236.013 54.7378 237.244C53.7743 238.474 51.0693 240.657 49.5137 240.796C47.9696 240.762 48.3411 238.556 48.701 237.65C49.5949 235.421 50.0245 232.856 48.7475 230.812C47.5865 228.966 45.9612 230.035 45.0325 232.252C43.0357 236.988 47.2498 237.917 44.6494 244.442C44.1269 245.742 39.8663 249.886 38.5545 250.386C37.5445 250.769 35.9772 251.976 34.8511 251.43C33.1329 250.606 34.944 247.913 35.3735 246.81C35.9656 245.289 36.2558 243.571 35.9656 241.946C35.896 241.563 34.8047 238.683 34.8743 238.625C33.5509 239.798 34.2939 241.69 34.1081 243.188C33.7715 246.032 30.4744 247.866 28.0481 248.737C25.7843 249.538 23.3811 249.898 21.187 250.862C19.3643 251.674 17.7158 252.893 16.4272 254.426C16.0441 254.878 15.6493 255.378 15.0689 255.517C13.7802 255.807 13.0024 254.159 12.7702 252.858C11.8647 247.82 11.6674 242.131 14.8483 238.126C15.4172 237.418 16.0789 236.78 16.4852 235.967C16.8915 235.154 16.996 234.109 16.4388 233.401C15.4752 232.182 13.4088 232.856 12.5032 234.109C11.5977 235.363 11.3191 236.977 10.4832 238.277C9.64734 239.577 7.7202 240.471 6.58249 239.426C6.26904 239.148 6.07168 238.765 5.89754 238.382C4.63213 235.77 4.24902 232.751 4.70178 229.872Z" fill="#42C6A1"/>
<path d="M32.3784 208.313C29.5341 210.136 28.6866 212.98 28.1874 216.208C26.9801 224.009 27.5141 231.567 23.8456 238.811C23.7643 238.974 23.9965 239.113 24.0894 238.95C26.1094 235.502 27.0497 231.903 27.607 227.945C28.408 222.291 27.1194 212.202 32.4945 208.522C32.6338 208.429 32.5177 208.22 32.3784 208.313Z" fill="#83F2D0"/>
<path d="M47.3892 222.93C46.7507 222.047 46.0077 221.444 44.9629 221.107C44.8468 221.072 44.7539 221.258 44.87 221.316C45.7987 221.734 46.4953 222.256 47.0758 223.115C47.2151 223.301 47.5285 223.115 47.3892 222.93Z" fill="#83F2D0"/>
<path d="M41.7819 219.505C37.5445 217.125 32.0069 217.891 29.2439 213.236C29.1626 213.108 28.9304 213.19 28.9885 213.34C30.7995 218.298 37.7767 217.647 41.7006 219.644C41.7935 219.679 41.8748 219.551 41.7819 219.505Z" fill="#83F2D0"/>
<path d="M33.969 228.444C31.6356 226.459 28.6055 224.125 28.1528 220.898C28.1296 220.735 27.8625 220.77 27.8625 220.933C28.0367 224.207 31.6588 226.587 33.969 228.444C33.969 228.467 33.969 228.456 33.969 228.444Z" fill="#83F2D0"/>
<path d="M11.8066 228.56C14.9992 225.321 19.1437 225.321 23.2534 224.183C25.227 223.638 26.98 222.813 27.9087 220.886C28.0248 220.642 27.6882 220.433 27.5372 220.677C25.4127 224.137 20.8851 223.997 17.4023 225.089C15.1966 225.785 13.3159 226.772 11.7718 228.525C11.7486 228.548 11.7834 228.583 11.8066 228.56Z" fill="#83F2D0"/>
<path d="M15.278 208.267C18.7027 208.673 20.6647 210.183 23.2884 212.156C24.9021 213.363 26.9105 213.572 28.8725 213.654C29.3369 213.677 29.3369 212.957 28.8725 212.934C26.9802 212.864 25.2272 212.679 23.6367 211.622C22.6963 210.995 21.8837 210.241 20.8853 209.683C19.1439 208.708 17.2516 208.221 15.278 208.058C15.1503 208.058 15.1619 208.244 15.278 208.267Z" fill="#83F2D0"/>
<path d="M29.2903 237.441C29.1742 235.317 28.5938 233.065 27.1426 231.439C27.0497 231.335 26.8756 231.474 26.9452 231.59C28.0017 233.506 28.8376 235.212 29.0001 237.43C29.0117 237.627 29.3019 237.639 29.2903 237.441Z" fill="#83F2D0"/>
<path d="M61.9356 227.353C64.687 222.21 71.1882 219.481 76.7375 221.42C78.7923 222.14 80.6846 223.313 82.7859 223.905C83.4244 224.079 84.0978 224.16 84.7711 224.183C86.3616 220.875 88.7879 217.276 92.3056 217.09C96.601 216.869 102.313 220.538 104.96 223.638C106.771 225.762 108.164 228.13 108.234 230.998C108.245 231.543 108.199 232.112 107.874 232.554C107.432 233.146 106.597 233.285 105.865 233.238C105.134 233.192 104.391 233.006 103.659 233.111C102.51 233.273 101.535 234.214 101.233 235.34C100.943 236.466 101.303 237.72 102.081 238.579C102.394 238.927 102.777 239.217 103.172 239.484C104.228 239.786 105.25 240.134 106.132 240.761C107.897 242.027 108.675 244.256 108.686 246.369C108.698 248.203 107.816 249.77 107.177 251.43C106.736 252.568 104.983 257.746 103.033 255.981C102.638 255.621 102.58 255.029 102.51 254.507C102.313 252.997 101.628 251.349 100.188 250.85C99.306 250.548 98.2495 250.78 97.5762 251.43C96.9028 252.08 96.6358 253.125 96.9261 254.019C97.1234 254.646 97.553 255.168 97.9012 255.714C98.5514 256.712 98.9577 257.839 99.1434 259.011C99.7703 261.066 99.6891 263.353 99.1666 265.454C98.4701 268.264 97.0421 270.818 95.6374 273.349C94.9757 269.262 90.6454 267.045 86.9304 265.21C83.7031 263.608 78.595 261.739 79.1754 257.246C79.3496 255.877 79.9881 254.274 79.0593 253.253C77.5037 254.518 77.0625 256.712 77.0742 258.709C77.0742 259.835 77.1903 260.961 77.2135 262.088C77.2251 262.645 77.5501 264.061 76.7723 264.305C76.5401 264.375 76.2963 264.27 76.0758 264.166C73.8584 263.086 71.7107 261.472 70.2711 259.452C68.5994 257.107 68.0653 253.729 69.7371 251.395C70.2943 250.629 71.0489 250.014 71.6294 249.271C75.1586 244.755 72.0473 242.897 68.7735 244.116C67.4617 244.604 66.2427 245.393 65.3139 246.45C64.8031 247.03 64.4549 247.727 64.1878 248.447C63.9789 249.004 64.0717 249.817 63.619 250.258C62.4813 251.372 61.5061 248.261 61.2275 247.68C60.6006 246.334 60.1362 244.917 59.8227 243.466C59.1726 240.471 59.1378 237.337 59.6254 234.307C60.0433 231.903 60.7747 229.512 61.9356 227.353Z" fill="#1D9E99"/>
<path d="M84.446 225.309C88.7414 229.477 86.6749 238.765 86.8143 244.07C86.9071 247.855 87.3831 251.337 89.0084 254.774C89.1477 255.064 89.6353 254.867 89.5308 254.553C87.3599 247.971 87.801 241.771 87.7778 234.992C87.7662 231.184 87.8475 227.562 84.7942 224.961C84.5504 224.752 84.2138 225.077 84.446 225.309Z" fill="#37E2D6"/>
<path d="M69.412 237.499C70.0273 236.768 70.6658 236.362 71.5713 236.013C71.8499 235.909 71.7454 235.514 71.4436 235.561C70.3872 235.735 69.6326 236.199 68.8896 236.965C68.5529 237.314 69.1101 237.859 69.412 237.499Z" fill="#37E2D6"/>
<path d="M74.7176 234.748C78.3397 233.529 85.7348 234.782 87.4646 230.15C87.5691 229.872 87.1743 229.674 86.977 229.872C85.0731 231.88 83.2388 232.716 80.499 233.076C78.4441 233.355 76.4938 233.598 74.5783 234.446C74.4273 234.515 74.5434 234.806 74.7176 234.748Z" fill="#37E2D6"/>
<path d="M80.9632 243.733C83.3199 242.271 87.3019 240.448 87.6618 237.313C87.6966 236.965 87.1626 236.919 87.0697 237.232C86.1293 240.192 83.4011 242.027 80.9516 243.71C80.94 243.71 80.9516 243.733 80.9632 243.733Z" fill="#37E2D6"/>
<path d="M101.872 246.183C100.525 244.082 98.5513 242.828 96.2875 241.841C93.2227 240.506 89.856 240.169 88.103 236.977C87.8592 236.536 87.1858 236.837 87.3019 237.313C87.8011 239.38 89.6934 240.436 91.5509 241.156C95.1962 242.584 99.1666 243.025 101.79 246.241C101.814 246.299 101.895 246.229 101.872 246.183Z" fill="#37E2D6"/>
<path d="M101.036 227.132C98.8996 227.028 96.926 227.329 94.964 228.2C93.9772 228.641 93.0717 229.291 92.0617 229.663C90.6686 230.162 89.1826 230.058 87.7198 229.942C86.7679 229.86 86.7679 231.358 87.7198 231.428C89.4148 231.555 91.4116 231.567 92.9324 230.708C94.0353 230.081 94.9176 229.187 96.0901 228.641C97.6574 227.91 99.3059 227.608 101.036 227.562C101.303 227.538 101.303 227.144 101.036 227.132Z" fill="#37E2D6"/>
<path d="M84.8523 252.812C85.2703 250.687 86.4196 249.375 87.3831 247.541C87.4992 247.32 87.2554 247.03 87.0233 247.181C85.3399 248.307 84.5621 250.745 84.2603 252.638C84.2022 253.021 84.7711 253.195 84.8523 252.812Z" fill="#37E2D6"/>
<path d="M66.2659 279.432C66.9972 272.339 62.2258 265.013 55.2138 263.051C52.6133 262.32 49.8619 262.169 47.3079 261.287C46.5301 261.02 45.7871 260.625 45.0789 260.172C45.729 255.726 45.7406 250.409 42.2578 247.75C38.0088 244.5 29.6269 244.163 24.7858 245.417C21.4656 246.276 18.4007 247.669 16.3575 250.502C15.9744 251.036 15.6261 251.651 15.6493 252.313C15.6958 253.218 16.4388 253.95 17.2282 254.414C18.0176 254.89 18.8999 255.215 19.5733 255.83C20.6413 256.806 20.9896 258.442 20.5136 259.778C20.0376 261.113 18.8071 262.111 17.4139 262.424C16.8451 262.552 16.2646 262.575 15.6725 262.564C14.3839 262.134 13.0953 261.751 11.7486 261.763C9.05525 261.798 6.73339 263.481 5.25901 265.594C3.98199 267.428 3.79624 269.622 3.30865 271.735C2.97198 273.186 1.19576 279.618 4.41153 279.223C5.06165 279.142 5.52602 278.585 5.96718 278.109C7.20937 276.727 9.05525 275.566 10.8663 276.077C11.9808 276.39 12.8979 277.366 13.1417 278.492C13.3739 279.618 12.9328 280.848 12.0272 281.557C11.3887 282.044 10.5993 282.265 9.85629 282.567C8.50961 283.112 7.30225 283.96 6.30385 285.005C4.249 286.63 2.7514 288.975 1.83427 291.459C0.615293 294.768 0.301842 298.344 0 301.861C3.4944 298.227 9.46158 299.052 14.5232 299.818C18.9348 300.491 25.4476 302.198 27.9552 297.287C28.7214 295.79 29.1742 293.735 30.8343 293.352C31.5541 295.72 30.486 298.227 29.1045 300.224C28.3151 301.35 27.4212 302.395 26.6201 303.51C26.2254 304.067 24.9135 305.263 25.5288 306.052C25.7146 306.284 26.0396 306.366 26.3415 306.412C29.3483 306.888 32.6686 306.784 35.5244 305.774C38.8447 304.601 41.7354 301.583 41.6309 298.065C41.5961 296.904 41.2478 295.755 41.1549 294.594C40.6558 287.57 45.1253 287.907 47.6445 291.436C48.6546 292.852 49.3511 294.501 49.5833 296.207C49.711 297.148 49.5717 298.088 49.3511 299.005C49.177 299.702 48.5152 300.468 48.6778 301.223C49.0725 303.138 52.2186 300.712 52.9036 300.317C54.4708 299.412 55.922 298.309 57.2454 297.078C59.9736 294.524 62.1794 291.401 63.7699 288.023C65.0585 285.318 65.9524 282.416 66.2659 279.432Z" fill="#1D9E99"/>
<path d="M44.6376 261.53C37.3702 262.691 33.0632 273.465 29.2669 278.701C26.562 282.427 23.6596 285.597 19.6312 287.895C19.2829 288.093 18.9231 287.535 19.2481 287.303C26.0047 282.218 29.8358 275.694 34.5376 268.902C37.1729 265.094 39.5876 261.403 44.5215 260.938C44.9047 260.904 45.0208 261.472 44.6376 261.53Z" fill="#37E2D6"/>
<path d="M51.6032 284.343C51.4755 283.182 51.104 282.323 50.419 281.336C50.2101 281.034 50.5816 280.709 50.8602 280.976C51.8238 281.893 52.2649 282.892 52.5087 284.192C52.6132 284.772 51.6728 284.923 51.6032 284.343Z" fill="#37E2D6"/>
<path d="M47.7491 277.946C44.8817 274.173 36.4417 270.214 37.8696 264.363C37.9509 264.015 38.4965 264.084 38.5546 264.421C39.1118 267.765 40.4237 269.901 42.9661 272.199C44.87 273.918 46.7043 275.543 48.0858 277.737C48.2135 277.934 47.8885 278.132 47.7491 277.946Z" fill="#37E2D6"/>
<path d="M35.513 282.52C34.1083 279.386 31.2872 274.765 33.0867 271.363C33.284 270.98 33.8645 271.317 33.7484 271.7C32.6687 275.334 34.2012 279.095 35.5362 282.497C35.5479 282.532 35.5246 282.543 35.513 282.52Z" fill="#37E2D6"/>
<path d="M12.4914 270.319C15.3241 269.158 18.1916 269.286 21.1984 269.901C25.2617 270.725 28.9418 272.745 32.9354 270.783C33.4927 270.505 33.9686 271.294 33.5275 271.689C31.5887 273.407 28.9302 273.14 26.5271 272.559C21.8137 271.433 17.437 269.077 12.5379 270.458C12.4566 270.47 12.4218 270.354 12.4914 270.319Z" fill="#37E2D6"/>
<path d="M26.3997 251.906C28.6519 253.3 30.4629 254.995 31.8793 257.247C32.5874 258.384 33.0518 259.673 33.8412 260.764C34.9209 262.25 36.5114 263.179 38.0902 264.096C39.1118 264.688 38.0902 266.186 37.0686 265.582C35.246 264.514 33.1911 263.133 32.2275 261.182C31.531 259.778 31.2407 258.268 30.4281 256.887C29.3368 255.041 27.8508 253.59 26.1094 252.324C25.8424 252.115 26.121 251.732 26.3997 251.906Z" fill="#37E2D6"/>
<path d="M25.2387 288.847C26.2719 286.421 25.9933 284.296 26.2719 281.777C26.3068 281.475 26.7595 281.359 26.8872 281.673C27.8276 283.983 26.9337 286.978 25.9469 289.103C25.7495 289.52 25.053 289.288 25.2387 288.847Z" fill="#37E2D6"/>
<path d="M55.9102 182.274C56.4791 177.526 53.3794 172.627 48.7357 171.315C47.0059 170.827 45.1832 170.734 43.4999 170.142C42.9891 169.956 42.4899 169.701 42.0255 169.399C42.5131 166.427 42.5711 162.863 40.2841 161.087C37.4979 158.916 31.9254 158.707 28.6864 159.554C26.4691 160.135 24.4142 161.075 23.0211 162.979C22.7541 163.339 22.5219 163.745 22.5335 164.187C22.5567 164.79 23.0443 165.278 23.5551 165.591C24.0775 165.905 24.658 166.125 25.0992 166.543C25.7957 167.193 26.0163 168.285 25.6796 169.179C25.343 170.072 24.5187 170.746 23.5899 170.955C23.2068 171.036 22.8237 171.059 22.429 171.048C21.5815 170.757 20.7225 170.502 19.8285 170.514C18.0407 170.537 16.4735 171.675 15.4751 173.091C14.6044 174.321 14.4534 175.784 14.1168 177.212C13.8846 178.187 12.6192 182.494 14.7669 182.227C15.1964 182.169 15.5215 181.798 15.8117 181.473C16.6592 180.544 17.8898 179.766 19.0972 180.103C19.8401 180.312 20.4322 180.962 20.5831 181.717C20.7341 182.471 20.4206 183.295 19.8053 183.771C19.3758 184.097 18.8417 184.247 18.3542 184.456C17.4486 184.828 16.636 185.397 15.9626 186.093C14.5811 187.185 13.5595 188.763 12.921 190.424C12.0735 192.641 11.8297 195.032 11.5859 197.389C13.9542 194.951 17.913 195.497 21.2681 196.008C24.1936 196.449 28.5007 197.587 30.2305 194.289C30.7529 193.279 31.0779 191.91 32.1924 191.654C32.6452 193.233 31.9138 194.916 30.9619 196.263C30.4278 197.018 29.8241 197.726 29.2785 198.469C29.0115 198.84 28.1176 199.641 28.5239 200.175C28.6516 200.338 28.8606 200.384 29.0579 200.408C31.0547 200.721 33.2605 200.651 35.176 199.966C37.405 199.177 39.3554 197.157 39.3205 194.789C39.3089 194.011 39.0884 193.245 39.0419 192.467C38.7865 187.765 41.7585 187.986 43.3954 190.342C44.0571 191.283 44.4983 192.397 44.626 193.535C44.6956 194.162 44.6028 194.8 44.4402 195.404C44.3242 195.88 43.8714 196.379 43.9643 196.89C44.2081 198.167 46.3209 196.542 46.7853 196.275C47.8418 195.671 48.8169 194.928 49.7109 194.092C51.5567 192.374 53.0543 190.284 54.1456 188.02C55.0395 186.221 55.678 184.271 55.9102 182.274Z" fill="#3DC8A1"/>
<path d="M41.6773 169.863C38.09 170.049 36.1861 173.253 34.3402 175.97C31.3914 180.3 28.7677 184.329 24.5419 187.544C24.2517 187.765 24.4955 188.218 24.8322 188.044C27.8158 186.523 29.9519 183.887 31.8558 181.194C34.2938 177.746 37.1032 170.966 41.6657 170.374C41.9907 170.316 42.0139 169.84 41.6773 169.863Z" fill="#83F2D0"/>
<path d="M46.7623 185.432C46.5881 184.538 46.3095 183.922 45.6594 183.284C45.4737 183.098 45.1486 183.342 45.2879 183.562C45.7175 184.131 45.9612 184.793 46.0193 185.524C46.0889 186.058 46.8668 185.966 46.7623 185.432Z" fill="#83F2D0"/>
<path d="M44.0689 181.066C43.233 179.639 42.0837 178.547 40.8647 177.444C39.1233 175.865 38.3455 174.438 37.9044 172.151C37.8463 171.86 37.4284 171.895 37.3471 172.151C36.1514 176.04 41.9444 178.733 43.7903 181.229C43.9064 181.403 44.185 181.252 44.0689 181.066Z" fill="#83F2D0"/>
<path d="M35.6869 184.514C34.851 182.216 33.9339 179.72 34.6653 177.282C34.7582 176.957 34.259 176.736 34.108 177.05C32.9471 179.464 34.6885 182.309 35.6521 184.526C35.6637 184.549 35.6869 184.538 35.6869 184.514Z" fill="#83F2D0"/>
<path d="M20.5135 176.481C24.066 175.61 26.9218 177.433 30.2885 178.071C31.8674 178.373 33.2721 178.327 34.5375 177.305C34.9555 176.968 34.4215 176.411 34.0035 176.608C31.136 177.955 28.5123 176.341 25.668 175.912C23.8222 175.633 22.2201 175.68 20.4903 176.365C20.4206 176.399 20.4439 176.492 20.5135 176.481Z" fill="#83F2D0"/>
<path d="M29.8129 164.349C30.8693 165.127 31.7516 166.032 32.4482 167.147C33.0402 168.087 33.1912 169.086 33.5975 170.084C34.178 171.512 35.6407 172.557 36.941 173.311C37.7652 173.787 38.5198 172.51 37.6956 172.034C36.7204 171.466 35.6523 170.885 34.979 169.945C34.4334 169.167 34.0967 168.227 33.5859 167.425C32.6804 165.998 31.473 164.871 30.0218 164.001C29.7896 163.85 29.6039 164.187 29.8129 164.349Z" fill="#83F2D0"/>
<path d="M29.0116 188.868C29.7314 187.347 30.3119 185.49 29.7546 183.841C29.6618 183.551 29.267 183.62 29.2438 183.911C29.0813 185.559 29.1742 186.976 28.5008 188.566C28.3383 188.914 28.8375 189.228 29.0116 188.868Z" fill="#83F2D0"/>
<path d="M20.5254 341.089C20.5254 341.089 52.9153 349.506 88.4398 340.381V348.623H20.5254V341.089Z" fill="#69AAEC"/>
<path d="M19.3412 341.159C23.1838 342.459 27.1774 343.144 31.1826 343.678C36.1746 344.328 41.2015 344.688 46.2399 344.839C56.5141 345.141 66.8696 344.781 77.051 343.364C79.3612 343.039 81.6599 342.668 83.9353 342.134C85.7928 341.693 87.6851 341.217 89.4265 340.416C89.798 340.242 89.531 339.673 89.1595 339.766C85.5954 340.683 82.0313 341.449 78.3744 341.983C73.6146 342.68 68.8084 343.074 64.0137 343.33C53.7279 343.852 43.3492 343.782 33.0866 342.738C28.5473 342.273 23.9384 341.635 19.5501 340.369C19.0509 340.23 18.8536 340.996 19.3412 341.159Z" fill="#3479B2"/>
<path d="M149.481 259.069C149.481 259.069 149.028 315.967 149.899 322.595C150.758 329.224 155.715 399.774 155.715 399.774C155.715 399.774 161.764 400.993 163.981 399.751C165.119 390.034 167.545 352.164 168.079 323.396C166.779 318.079 178.504 259.569 178.504 259.569L149.481 259.069Z" fill="#F9AB87"/>
<path d="M178.505 267.591C178.505 267.591 188.465 307.167 194.421 322.143C200.377 337.13 231.339 390.858 232.302 393.133C237.166 393.482 239.778 390.092 239.778 390.092C239.778 390.092 224.907 333.288 210.558 316.593C208.747 305.727 204.602 259.719 204.602 259.719L178.505 267.591Z" fill="#F9AB87"/>
<path d="M187.618 208L182.591 239.461C182.591 239.461 182.011 242.828 181.128 248.017C179.573 257.049 177.088 271.608 175.045 283.472C173.791 290.798 172.723 297.09 172.154 300.433C170.134 312.286 168.834 316.408 170.297 337.328C171.76 358.248 166.431 389.628 166.431 389.628C157.167 391.206 153.672 389.709 153.672 389.709C153.672 389.709 149.644 343.991 148.46 325.451C147.299 306.911 147.113 298.762 146.893 275.322C146.66 251.872 149.354 218.019 149.354 218.019L187.618 208Z" fill="#004C80"/>
<path d="M181.128 248.017C179.573 257.05 177.088 271.608 175.045 283.472C167.777 265.281 166.442 235.967 166.442 235.967L181.128 248.017Z" fill="#332027"/>
<path d="M206.471 213.375C206.471 213.375 209.71 225.066 208.05 242.422C206.39 259.766 210.384 305.46 211.405 308.792C212.427 312.124 221.598 328.307 227.066 343.248C232.534 358.19 238.629 380.445 238.629 380.445C238.629 380.445 237.224 384.38 227.623 385.901C227.623 385.901 193.144 325.892 188.779 317.011C184.414 308.119 172.967 261.322 170.007 250.513C167.046 239.705 163.424 221.92 163.424 221.92" fill="#004C80"/>
<path d="M207.725 223.429C178.284 226.389 160.057 222.814 148.715 221.502C148.309 218.321 149.667 216.986 150.77 207.188C151.733 198.608 150.387 175.68 151.257 167.089C152.058 159.148 152.337 151.045 153.916 143.244C155.506 135.477 157.735 127.513 162.867 121.29C163.714 120.28 164.631 119.305 165.827 118.736C167.986 117.726 170.529 118.295 172.839 118.887C179.213 120.513 183.856 118.11 188.546 118.423C190.833 119.12 196.278 120.896 198.542 122.695C200.492 127.304 194.107 133.945 194.978 136.51C196.406 140.794 197.439 145.194 198.472 149.582L204.231 164.106C205.125 175.181 204.846 190.83 205.38 203.914C205.519 208.035 210.14 221.722 207.725 223.429Z" fill="#BDDBF3"/>
<path d="M166.059 116.682L160.673 169.806C158.444 174.589 158.328 183.644 144.327 188.717C141.808 189.901 138.952 190.459 135.806 190.969C136.34 184.073 132.242 177.328 129.815 176.226L138.592 170.723C141.285 160.321 142.655 143.859 146.939 132.145C149.574 124.936 153.8 120.768 166.059 116.682Z" fill="#BDDBF3"/>
<path d="M168.59 106.732C168.637 108.485 168.416 112.56 167.093 115.091C166.396 116.426 164.98 116.809 164.074 117.378C164.469 119.526 166.547 128.767 171.887 129.44C177.239 130.114 186.213 121.279 188.535 118.411C187.037 118.098 183.973 117.506 183.172 115.544C180.548 109.147 181.035 96.8877 181.569 95.1463" fill="#F49B6E"/>
<path d="M183.055 69.7915C186.039 74.1682 187.954 79.3343 188.105 84.6282C188.175 86.9152 187.908 89.2023 187.653 91.4777C187.258 94.9953 186.852 98.5129 186.457 102.031C186.155 104.666 185.888 107.475 187.119 109.82C187.943 111.388 189.394 112.641 189.858 114.348C187.269 112.247 184.588 110.041 183.148 107.034C181.465 103.54 181.674 99.43 182.347 95.6106C183.021 91.7911 184.123 88.0065 184.089 84.1174" fill="#280A26"/>
<path d="M188.5 93.4398C188.245 96.2144 188.001 99.0122 188.407 101.764C188.814 104.515 189.928 107.255 192.029 109.089C189.313 107.824 187.421 105.188 186.469 102.344C185.528 99.4998 185.435 96.4466 185.586 93.4514" fill="#280A26"/>
<path d="M149.342 80.4952C148.82 84.9184 152.233 88.7146 153.8 92.8824C154.88 95.7499 155.089 98.8612 155.785 101.833C156.493 104.817 157.852 107.858 160.487 109.437C162.716 110.772 165.514 110.819 168.08 110.331C174.047 109.193 179.422 105.258 182.301 99.8944C185.18 94.5425 185.494 87.8788 183.137 82.2715C182.289 80.2515 181.117 78.3707 179.77 76.641C176.311 72.1946 171.365 68.5609 165.746 68.0617C160.127 67.5625 154.021 70.9408 152.651 76.4088" fill="#FFB082"/>
<path d="M158.037 66.1344C157.561 65.7745 156.981 66.0415 156.528 66.3782C151.501 70.0583 150.097 79.485 157.213 81.5863C159.849 82.3642 162.658 82.0623 165.386 82.2481C167.975 82.4222 170.529 83.0375 172.921 84.0591C171.98 82.8169 170.819 81.7489 169.496 80.9246C172.05 80.971 174.557 82.19 176.16 84.1636C177.576 85.905 178.423 88.2733 180.432 89.2717C181.302 87.0311 181.79 84.6396 181.86 82.2248C181.918 80.2629 181.674 78.2312 180.745 76.5015C180.037 75.1896 178.957 74.1099 177.843 73.1232C175.277 70.8593 172.317 69.2457 169.867 66.9006C167.499 64.6368 163.146 62.5239 160.232 64.927" fill="#280A26"/>
<path d="M156.807 67.0286C154.659 67.284 152.709 68.4682 151.165 69.9774C145.766 75.2596 144.594 83.9666 150.596 89.3069C151.339 89.9686 153.127 91.1295 153.463 92.0815C151.687 87.1359 151.571 85.5222 151.71 82.0975C151.861 78.6844 154.369 75.3989 156.145 72.485" fill="#280A26"/>
<path d="M161.404 102.019C161.288 102.599 161.973 105.258 164.411 105.525C166.454 105.757 169.972 103.9 169.322 101.961C168.904 101.241 161.52 101.438 161.404 102.019Z" fill="#DB7775"/>
<path d="M163.505 94.3219C163.424 94.763 163.087 94.9952 162.739 95.239C162.414 95.4712 162.077 95.7614 161.88 96.1097C161.625 96.5741 161.683 97.1313 161.95 97.5841C162.101 97.8279 162.31 98.0485 162.542 98.211C162.797 98.3851 163.053 98.4664 163.354 98.5128C163.494 98.5361 163.633 98.3619 163.505 98.2574C163.296 98.0833 163.099 97.9208 162.878 97.7698C162.658 97.6189 162.461 97.4564 162.321 97.2126C162.089 96.8179 162.147 96.3999 162.426 96.0517C162.855 95.5176 163.54 95.0997 163.598 94.3335C163.61 94.2755 163.517 94.2522 163.505 94.3219Z" fill="#DB7775"/>
<path d="M155.158 89.0276C155.634 88.0756 156.493 87.7738 157.48 89.4571C158.095 90.5136 158.513 92.6961 156.969 93.1721C154.613 93.8919 154.38 90.5832 155.158 89.0276Z" fill="#471A12"/>
<path d="M155.135 90.0726C155.344 89.6431 155.727 89.5154 156.168 90.2584C156.447 90.7344 156.621 91.6979 155.936 91.9069C154.891 92.232 154.787 90.7692 155.135 90.0726Z" fill="white"/>
<path d="M159.454 84.9529C158.339 83.5482 154.241 82.7587 153.661 85.127C153.614 85.336 153.858 85.4753 154.009 85.336C154.763 84.6278 155.332 84.1983 156.435 84.2331C157.468 84.2679 158.42 84.6859 159.338 85.1154C159.43 85.1619 159.523 85.0342 159.454 84.9529Z" fill="#4F2118"/>
<path d="M169.972 87.101C170.517 86.0794 171.481 85.7543 172.561 87.5306C173.245 88.6451 173.687 90.9553 171.957 91.4661C169.322 92.2555 169.089 88.7495 169.972 87.101Z" fill="#471A12"/>
<path d="M169.937 88.2037C170.181 87.7509 170.599 87.6116 171.086 88.4011C171.388 88.9003 171.586 89.9219 170.819 90.1425C169.647 90.4907 169.542 88.9467 169.937 88.2037Z" fill="white"/>
<path d="M167.29 84.3145C168.602 83.8733 169.983 83.6992 171.353 83.9778C172.677 84.2564 173.571 84.9878 174.708 85.6031C174.894 85.696 175.138 85.4986 175.01 85.3013C173.42 82.9097 169.473 82.7588 167.151 83.9546C166.965 84.0707 167.093 84.3841 167.29 84.3145Z" fill="#4F2118"/>
<path d="M169.205 96.3653C169.031 95.7036 169.205 94.9606 169.925 94.2176C171.167 92.9405 173.269 92.511 174.975 92.778C175.73 92.8941 176.484 93.312 176.798 94.0202C176.984 94.4497 176.995 94.9373 176.914 95.4017C176.635 97.0851 175.207 98.5594 173.489 98.7684C171.922 98.9658 169.646 98.037 169.205 96.3653Z" fill="#F79386"/>
<path d="M155.495 97.2937C155.367 96.7713 155.46 96.1908 155.878 95.622C156.598 94.6468 157.863 94.3565 158.908 94.6119C159.373 94.728 159.837 95.0763 160.046 95.6336C160.174 95.9818 160.185 96.3649 160.15 96.7248C160.023 98.0483 159.198 99.1744 158.165 99.3021C157.213 99.4066 155.808 98.6171 155.495 97.2937Z" fill="#F79386"/>
<path d="M153.603 68.2706C153.533 67.3186 153.812 66.3202 154.346 65.5308C155.53 63.7778 157.55 62.8606 159.28 61.781C165.386 57.9847 174 58.333 180.443 61.572C182.556 62.6401 186.399 65.8326 188.059 69.1181C198.728 90.1889 187.769 103.145 184.065 103.122C179.932 103.098 179.039 98.6637 179.085 95.3086C179.131 92.3482 179.538 88.7958 177.46 86.3579C175.068 83.5484 173.687 79.845 170.657 77.5928C169.368 76.6409 167.882 75.9908 166.384 75.4103C164.144 74.5396 161.834 73.9243 159.558 73.1581C157.782 72.566 156.017 71.8114 154.636 70.5344C153.986 69.9423 153.661 69.1181 153.603 68.2706Z" fill="#280A26"/>
<path d="M177.738 93.4047C177.309 92.4411 177.959 90.8158 178.354 90.4559C179.155 89.7362 180.409 89.9219 181.535 90.2934C182.22 90.5256 182.707 91.1293 183.067 91.7678C184.298 93.9852 184.216 96.8875 182.858 99.0352C182.313 99.9059 181.511 100.684 180.49 100.846C179.48 100.997 178.307 100.289 178.296 99.2674" fill="#FFB082"/>
<path d="M93.5246 189.344C93.5246 189.344 89.2524 190.598 88.1959 191.434C87.6735 191.956 85.8973 194.592 85.6883 195.869C85.5142 196.937 86.3849 200.141 86.3849 200.141C86.3849 200.141 87.3601 200.594 87.9173 199.224C88.4862 197.854 87.8593 196.287 87.8593 196.287L89.9605 193.918L93.5478 193.907L93.9541 191.527L93.5246 189.344Z" fill="#FFB082"/>
<path d="M87.5807 198.376C87.5807 198.376 89.4149 198.225 90.3321 197.355C91.2492 196.484 97.2976 194.847 97.2976 194.847L92.77 191.805C92.77 191.805 89.264 192.281 89.0551 192.479C88.8461 192.676 87.2788 193.895 87.2788 194.046C87.2788 194.197 86.9189 195.694 86.9189 195.694L87.5807 198.376Z" fill="#FFB082"/>
<path d="M84.9685 197.598C84.9685 197.598 87.2091 197.006 88.3004 199.874C88.3004 199.874 91.3884 199.061 91.7483 198.376C91.7483 198.376 92.7351 192.885 87.6735 190.319L84.9685 197.598Z" fill="#42C6A1"/>
<path d="M106.411 191.504L105.842 194.777C105.842 194.777 104.008 195.102 102.348 195.474C100.072 195.427 93.9308 193.547 92.259 193.941L93.5361 189.356C94.1281 189.17 95.7418 188.822 96.1481 188.857C102.603 189.356 105.099 188.334 105.099 188.334L106.411 191.504Z" fill="#FFB082"/>
<path d="M95.2311 193.616C95.2311 193.616 93.8032 194.29 93.0486 195.718C92.1082 197.494 88.6254 198.353 87.7547 198.643C86.4081 199.096 85.9785 199.92 85.9785 200.118C85.9785 200.327 86.1294 200.524 86.8957 200.605C87.6619 200.687 90.8892 200.582 91.9573 200.431C93.0254 200.28 97.0654 198.574 98.0406 198.086C99.0041 197.598 102.336 195.462 102.336 195.462L98.4701 193.756L95.2311 193.616Z" fill="#FFB082"/>
<path d="M126.739 178.757L103.23 189.135L105.83 194.777C105.83 194.777 127.11 191.805 131.069 190.958C135.016 190.122 135.643 183.679 135.643 183.679L129.815 177.677L126.739 178.757Z" fill="#FFB082"/>
<path d="M172.061 128.86C171.365 133.712 170.924 138.623 170.726 143.534C170.633 145.983 170.622 148.445 170.726 150.894C170.773 152.113 170.842 153.344 170.958 154.563C171.063 155.747 171.167 157.035 171.55 158.162C171.655 158.487 172.131 158.429 172.143 158.08C172.212 156.885 172.038 155.619 171.945 154.423C171.864 153.204 171.794 151.974 171.771 150.755C171.713 148.352 171.759 145.937 171.852 143.534C172.038 138.67 172.537 133.817 172.758 128.953C172.769 128.558 172.119 128.465 172.061 128.86Z" fill="#598FB5"/>
<path d="M206.03 208C205.995 208.012 205.961 208.012 205.926 208.023C203.209 208.465 201.224 210.833 201.05 213.573L201.015 214.025C199.819 228.317 202.211 299.18 202.211 299.18C173.187 304.88 145.523 299.18 145.523 299.18C145.523 299.18 145.232 263.295 145.523 249.074C145.79 235.979 150.259 195.822 150.967 189.541C151.025 188.973 151.014 187.568 151.037 186.999C151.629 174.484 148.228 158.51 147.937 153.82C147.635 149.025 151.35 139.784 151.35 139.784C153.266 136.29 153.51 124.646 153.533 122.614H153.545C153.545 122.614 154.682 121.395 156.493 120.687C156.726 123.31 155.39 145.496 167.255 147.493C180.153 149.675 192.064 122.73 193.295 119.967C193.295 119.967 195.176 120.431 196.151 121.232C195.535 123.252 186.202 147.783 189.87 161.273C190.857 164.918 192.888 170.909 194.827 177.804C196.778 184.7 198.74 192.467 199.947 199.56C202.037 203.148 205.31 202.892 205.31 202.892C205.949 204.239 206.03 208 206.03 208Z" fill="#42A3E8"/>
<path d="M153.707 202.892C153.707 202.892 152.418 204.529 151.896 206.189C151.559 207.257 152.697 207.246 153.707 207.13C154.729 207.025 154.543 204.587 154.543 204.587L153.707 202.892Z" fill="#F29E8B"/>
<path d="M150.213 230.824L138.952 201.499C137.675 198.156 134.366 196.078 130.802 196.252C129.885 196.298 128.991 196.368 128.097 196.449H128.109C128.109 196.449 104.426 198.225 103.822 200.745C103.23 203.217 104.344 214.56 104.344 214.56C104.588 217.102 104.797 218.971 104.797 218.971L107.038 240.959C107.467 245.162 111.008 248.331 115.234 248.331C119.146 248.331 124.51 247.89 131.104 246.357C137.663 244.825 142.644 242.863 146.15 241.133C149.981 239.264 151.745 234.795 150.213 230.824Z" fill="#F7BF38"/>
<path d="M107.978 232.287C107.978 232.287 95.4516 224.532 84.0629 206.7C84.0629 206.7 82.2054 207.269 80.3247 208.929C80.3247 208.929 96.9608 238.73 110.753 242.294" fill="#F7BF38"/>
<path d="M149.586 232.101C148.901 232.264 148.169 232.368 147.415 232.403L147.264 229.501C151.85 229.268 154.589 226.169 155.402 220.318C156.911 209.509 151.269 195.59 147.368 194.255C140.844 192.026 136.34 199.723 136.142 200.048L133.623 198.608C135.62 195.102 141.262 189.1 148.309 191.503C154.322 193.558 159.814 209.66 158.27 220.712C157.399 227.028 154.334 230.998 149.586 232.101Z" fill="#F7BF38"/>
<path d="M105.319 204.645C108.338 205.771 111.925 205.667 115.094 205.527C119.738 205.33 124.417 204.564 128.875 203.24C131.371 202.497 134.052 201.638 136.247 200.199C136.409 200.094 136.305 199.793 136.107 199.874C133.959 200.733 131.87 201.685 129.641 202.37C127.365 203.066 125.044 203.6 122.698 204.018C118.542 204.75 114.259 205.133 110.033 204.924C108.5 204.843 106.898 204.715 105.424 204.25C105.168 204.169 105.076 204.552 105.319 204.645Z" fill="#FF6724"/>
<path d="M108.988 244.279C119.808 245.719 131.138 244.36 141.204 240.1C144.152 238.846 147.171 237.395 149.737 235.444C149.911 235.305 149.76 235.027 149.562 235.143C147.066 236.513 144.64 237.94 142.04 239.101C139.451 240.251 136.769 241.191 134.029 241.934C128.77 243.374 123.349 244.117 117.904 244.233C114.932 244.291 111.96 244.163 109 243.884C108.721 243.85 108.733 244.244 108.988 244.279Z" fill="#FF6724"/>
<path d="M190.346 186.999H186.294C186.294 186.999 171.063 197.656 165.107 200.744C162.321 202.196 160.905 201.418 158.548 201.383C157.596 201.371 156.644 201.441 155.715 201.604C155.715 201.604 156.075 202.579 156.052 203.229C156.017 204.192 155.019 205.121 153.916 205.574H153.928C153.452 205.806 152.651 206.154 152.523 206.387C152.14 207.118 152.337 207.919 152.999 208.418C152.999 208.418 152.685 209.115 152.976 209.707C153.219 210.194 153.661 210.392 153.661 210.392C153.661 210.392 153.428 211.007 153.637 211.564C153.846 212.122 154.462 212.423 154.462 212.423C154.462 212.423 154.055 213.004 154.38 213.549C154.787 214.223 156.818 214.118 158.676 213.619C162.809 212.505 166.976 207.814 170.088 206.7L190.613 199.212H192.796L194.247 197.146V192.502L190.346 186.999Z" fill="#FFB082"/>
<path d="M216.56 186.709C214.157 191.77 205.914 195.88 198.24 199.212C197.033 190.528 192.761 185.966 189.197 183.957C190.114 183.342 191.066 182.715 191.948 182.077C193.202 181.194 194.642 179.906 195.338 178.466C196.801 175.448 195.837 150.952 194.409 145.101L193.283 134.223L198.519 122.683C202.547 125.11 205.728 128.047 208.317 131.762C219.056 147.237 222.945 173.265 216.56 186.709Z" fill="#BDDBF3"/>
<path d="M138.893 180.718C138.789 180.533 138.684 180.382 138.58 180.242C136.723 176.876 133.669 174.31 131.231 174.554C129.885 174.693 128.898 175.39 128.201 176.179C127.656 176.353 126.855 176.748 126.727 177.677C126.518 179.186 126.727 178.745 126.727 178.745C131.231 178.896 132.682 183.098 133.182 186.686C133.681 190.273 131.057 190.958 131.057 190.958C131.057 190.958 132.044 193.129 135.178 192.316C135.178 192.316 137.222 192.513 138.951 191.492C139.973 190.9 142.098 186.094 138.893 180.718Z" fill="#96C2E0"/>
<path d="M198.449 188.961C198.345 188.775 198.24 188.624 198.136 188.485C196.278 185.118 193.225 182.553 190.787 182.797C189.44 182.936 188.453 183.632 187.757 184.422C187.223 184.596 186.41 184.991 186.283 185.919C186.074 187.429 186.283 186.988 186.283 186.988C190.787 187.138 192.238 191.341 192.737 194.928C193.237 198.516 190.613 199.201 190.613 199.201C190.613 199.201 191.6 201.371 194.734 200.559C194.734 200.559 196.777 200.756 198.507 199.735C199.529 199.142 201.653 194.336 198.449 188.961Z" fill="#96C2E0"/>
<path d="M188.419 118.225C187.513 118.713 186.817 119.456 186.062 120.141C185.226 120.907 184.414 121.72 183.578 122.498C181.941 124.007 180.257 125.458 178.342 126.596C177.32 127.211 176.252 127.745 175.114 128.128C174.046 128.5 172.932 128.836 171.806 128.558C169.681 128.012 168.404 126.039 167.464 124.227C166.303 121.987 165.363 119.63 164.608 117.215C164.387 116.507 163.273 116.809 163.494 117.517C164.237 119.816 165.142 122.08 166.245 124.239C167.243 126.189 168.416 128.256 170.436 129.301C172.618 130.427 174.975 129.579 177.053 128.616C179.317 127.559 181.325 126.05 183.183 124.39C184.193 123.496 185.168 122.556 186.132 121.615C187.072 120.698 188.105 119.711 188.686 118.516C188.802 118.33 188.616 118.121 188.419 118.225Z" fill="#598FB5"/>
<path d="M169.879 132.424C169.995 132.424 170.111 132.401 170.204 132.354C170.308 132.319 170.401 132.261 170.482 132.18C170.564 132.099 170.622 132.006 170.656 131.901C170.714 131.797 170.738 131.692 170.726 131.576C170.714 131.495 170.703 131.425 170.691 131.344C170.645 131.193 170.575 131.077 170.471 130.961C170.413 130.915 170.355 130.868 170.297 130.822C170.157 130.74 170.018 130.706 169.867 130.706C169.751 130.706 169.635 130.729 169.542 130.775C169.437 130.81 169.345 130.868 169.263 130.949C169.182 131.031 169.124 131.124 169.089 131.228C169.031 131.332 169.008 131.437 169.02 131.553C169.031 131.634 169.043 131.704 169.054 131.785C169.101 131.936 169.17 132.052 169.275 132.168C169.333 132.215 169.391 132.261 169.449 132.308C169.588 132.377 169.728 132.424 169.879 132.424Z" fill="#598FB5"/>
<path d="M169.112 140.748C170.343 140.748 170.343 138.832 169.112 138.832C167.882 138.832 167.87 140.748 169.112 140.748Z" fill="#598FB5"/>
<path d="M151.176 139.68C150.073 142.094 149.272 144.66 148.668 147.249C148.251 149.025 147.96 150.848 147.775 152.67C147.67 153.646 147.612 154.621 147.577 155.596C147.566 156.049 147.542 156.513 147.554 156.966C147.566 157.523 147.728 158.057 147.844 158.603C149.261 165.325 150.398 172.197 150.793 179.07C150.909 181.16 150.99 183.296 150.805 185.385C150.781 185.676 151.222 185.664 151.257 185.385C151.489 183.632 151.489 181.856 151.443 180.103C151.385 177.317 151.199 174.519 150.874 171.756C150.445 168.146 149.864 164.547 149.144 160.983C148.959 160.077 148.761 159.172 148.564 158.266C148.309 157.094 148.309 155.979 148.367 154.795C148.448 152.868 148.668 150.952 149.005 149.048C149.551 145.937 150.294 142.814 151.548 139.912C151.64 139.645 151.281 139.436 151.176 139.68Z" fill="#396F91"/>
<path d="M193.689 140.19C193.701 141.711 193.933 143.255 194.061 144.764C194.316 147.748 194.595 150.743 194.839 153.727C195.408 160.715 195.826 167.751 195.535 174.763C195.408 177.862 194.328 180.742 191.449 182.158C191.182 182.286 191.414 182.669 191.681 182.553C193.852 181.601 195.21 179.778 195.814 177.491C196.255 175.819 196.348 174.02 196.406 172.302C196.464 170.514 196.452 168.726 196.418 166.95C196.255 159.938 195.617 152.914 194.781 145.96C194.548 144.056 194.189 142.129 194.131 140.213C194.107 139.923 193.689 139.923 193.689 140.19Z" fill="#598FB5"/>
<path d="M137.825 77.6397C134.017 79.0676 122.606 83.7926 123.534 85.4411C124.463 87.0896 194.676 78.104 209.408 74.273C209.408 74.273 215.375 71.4519 189.87 70.9991C163.551 70.5232 150.108 73.0192 137.825 77.6397Z" fill="#F7BF38"/>
<path d="M145.812 77.4888C145.812 77.4888 145.813 63.07 157.817 58.8674C169.67 54.7113 186.329 57.4163 189.672 71.6377L145.812 77.4888Z" fill="#F7BF38"/>
<path d="M145.72 75.4688C147.241 76.0492 148.912 76.2466 150.514 76.4091C153.057 76.6645 155.622 76.7342 158.188 76.7342C164.945 76.7226 171.736 76.0028 178.353 74.6329C180.281 74.2382 182.208 73.7738 184.1 73.2282C185.958 72.7058 187.92 72.1137 189.638 71.2082C189.951 71.0456 189.731 70.5697 189.406 70.6509C187.676 71.0689 185.981 71.6493 184.274 72.1369C182.591 72.6129 180.896 73.0192 179.189 73.3791C175.776 74.0989 172.328 74.6097 168.857 74.9928C163.076 75.6197 157.167 75.9099 151.35 75.5384C149.551 75.4223 147.635 75.3411 145.906 74.8071C145.464 74.6561 145.302 75.3063 145.72 75.4688Z" fill="#932318"/>
</svg>
