<svg width="1920" height="370" viewBox="0 0 1920 370" fill="none" xmlns="http://www.w3.org/2000/svg">
<rect y="60.6411" width="1920" height="320" fill="white"/>
<path fill-rule="evenodd" clip-rule="evenodd" d="M480.809 270.835C544.597 300.215 584.215 371.502 596.63 440.625C608.256 505.351 559.612 561.889 544.584 625.911C527.901 696.987 561.215 790.439 503.904 835.666C446.81 880.72 364.012 825.576 291.283 825.799C219.949 826.018 138.084 882.06 82.8159 836.959C26.7892 791.239 69.4666 697.397 48.9573 628.052C29.8585 563.477 -48.6953 513.678 -32.0995 448.415C-15.5772 383.44 64.2787 359.563 124.647 330.401C174.503 306.316 228.424 305.316 283.035 296.182C350.233 284.944 418.927 242.331 480.809 270.835Z" fill="#FFCB47"/>
<path d="M1243.05 234.388H1228.35V239.032H1243.05V234.388Z" fill="#7BAABF"/>
<path d="M1457.88 370.438C1457.81 370.438 1457.74 370.438 1457.68 370.426C1456.75 370.31 1456.07 369.463 1456.19 368.534L1473.2 227.191C1473.31 226.262 1474.15 225.6 1475.09 225.705C1476.02 225.821 1487.09 226.668 1486.99 227.597L1459.57 368.94C1459.46 369.811 1458.73 370.438 1457.88 370.438Z" fill="#BADAEF"/>
<path d="M1543.97 370.437C1544.04 370.437 1544.11 370.437 1544.18 370.426C1545.1 370.31 1545.78 369.462 1545.66 368.534L1528.64 227.19C1528.53 226.262 1527.69 225.6 1526.75 225.704C1525.82 225.82 1514.75 226.668 1514.85 227.597L1542.27 368.94C1542.38 369.811 1543.11 370.437 1543.97 370.437Z" fill="#BADAEF"/>
<path d="M1529.46 225.693H1472.4V229.083H1529.46V225.693Z" fill="#B4D9ED"/>
<path d="M1529.46 255.053H1472.4V258.443H1529.46V255.053Z" fill="#BADAEF"/>
<path d="M1529.56 225.89H1472.27C1470.79 225.89 1469.61 224.694 1469.61 223.232C1469.61 221.757 1470.81 220.573 1472.27 220.573H1529.56C1531.03 220.573 1532.22 221.769 1532.22 223.232C1532.23 224.706 1531.03 225.89 1529.56 225.89Z" fill="#69AAEC"/>
<path d="M1494.63 153.553C1494.63 153.553 1429.13 65.0666 1449.68 46.1666C1470.22 27.2667 1500.28 93.8344 1494.63 153.553Z" fill="#1D9F9D"/>
<path d="M1455.88 56.6149C1462.27 66.2855 1467.98 76.4204 1472.92 86.9152C1477.55 96.7831 1481.53 106.964 1484.88 117.343C1487.95 126.886 1490.51 136.603 1492.58 146.401C1494.43 155.143 1495.89 163.954 1496.98 172.824C1497.9 180.242 1498.55 187.695 1499.09 195.149C1499.14 195.961 1499.25 196.786 1499.29 197.598C1499.32 198.051 1500.03 198.051 1500 197.598C1499.84 194.162 1499.77 190.714 1499.54 187.278C1499.27 183.412 1498.93 179.557 1498.51 175.703C1497.53 166.938 1496.22 158.219 1494.52 149.559C1492.61 139.796 1490.22 130.137 1487.29 120.64C1484.1 110.285 1480.3 100.115 1475.81 90.2471C1471.03 79.7407 1465.51 69.5361 1459.13 59.9236C1458.29 58.6698 1457.45 57.4392 1456.6 56.197C1456.28 55.7791 1455.59 56.1738 1455.88 56.6149Z" fill="#0E7C74"/>
<path d="M1490.9 110.436C1490.63 114.429 1490.6 118.435 1490.44 122.44C1490.37 124.274 1490.3 126.108 1490.22 127.931C1490.15 129.545 1489.86 131.321 1490.13 132.911C1490.19 133.225 1490.63 133.178 1490.72 132.911C1490.96 132.168 1490.98 131.309 1491.06 130.543C1491.16 129.672 1491.19 128.802 1491.25 127.931C1491.37 126.097 1491.48 124.274 1491.55 122.44C1491.7 118.446 1491.84 114.429 1491.6 110.436C1491.57 109.995 1490.94 109.995 1490.9 110.436Z" fill="#0E7C74"/>
<path d="M1480.7 80.124C1480.43 84.1176 1480.39 88.1228 1480.23 92.128C1480.16 93.9623 1480.09 95.7965 1480.01 97.6192C1479.94 99.2329 1479.65 101.009 1479.93 102.6C1479.99 102.913 1480.43 102.867 1480.51 102.6C1480.75 101.857 1480.78 100.998 1480.86 100.231C1480.95 99.3606 1480.99 98.4899 1481.04 97.6192C1481.16 95.7849 1481.28 93.9623 1481.35 92.128C1481.5 88.1344 1481.64 84.1176 1481.39 80.124C1481.37 79.6712 1480.73 79.6712 1480.7 80.124Z" fill="#0E7C74"/>
<path d="M1465.74 52.7953C1465.98 56.1968 1466.21 59.5983 1466.27 62.9999C1466.29 64.7297 1466.3 66.4711 1466.28 68.2008C1466.25 69.8494 1465.98 71.6604 1466.27 73.2973C1466.32 73.6108 1466.77 73.5643 1466.85 73.2973C1467.36 71.7301 1467.26 69.8377 1467.32 68.2008C1467.38 66.4246 1467.42 64.6484 1467.38 62.8722C1467.31 59.4823 1467.13 56.0343 1466.43 52.7024C1466.35 52.3193 1465.72 52.4006 1465.74 52.7953Z" fill="#0E7C74"/>
<path d="M1454.16 68.7118C1456.94 70.6157 1459.74 72.4964 1462.44 74.5281C1463.83 75.5845 1465.22 76.6526 1466.58 77.7671C1467.25 78.3127 1467.9 78.87 1468.56 79.4156C1469.19 79.9264 1469.83 80.5185 1470.55 80.9016C1470.81 81.0409 1471.14 80.7507 1470.97 80.4836C1470.05 79.137 1468.56 78.0689 1467.32 77.0241C1465.98 75.8864 1464.62 74.7835 1463.21 73.727C1460.46 71.649 1457.61 69.6289 1454.52 68.1081C1454.1 67.9108 1453.77 68.4564 1454.16 68.7118Z" fill="#0E7C74"/>
<path d="M1456.18 74.0172C1458.96 75.9211 1461.76 77.8018 1464.46 79.8334C1465.85 80.8899 1467.24 81.9579 1468.6 83.0724C1469.27 83.6181 1469.92 84.1753 1470.58 84.7209C1471.21 85.2318 1471.85 85.8238 1472.57 86.2069C1472.83 86.3462 1473.16 86.056 1472.99 85.789C1472.07 84.4423 1470.58 83.3743 1469.34 82.3294C1468 81.1917 1466.64 80.0888 1465.23 79.0324C1462.48 76.9543 1459.63 74.9343 1456.54 73.4135C1456.13 73.2045 1455.81 73.7618 1456.18 74.0172Z" fill="#0E7C74"/>
<path d="M1467.43 100.73C1470.21 102.634 1473.01 104.515 1475.7 106.547C1477.1 107.603 1478.49 108.671 1479.85 109.786C1480.52 110.331 1481.17 110.888 1481.83 111.434C1482.46 111.945 1483.1 112.537 1483.82 112.92C1484.07 113.059 1484.41 112.769 1484.24 112.502C1483.32 111.155 1481.83 110.087 1480.59 109.043C1479.25 107.905 1477.89 106.802 1476.48 105.746C1473.73 103.667 1470.88 101.647 1467.79 100.127C1467.37 99.9177 1467.04 100.475 1467.43 100.73Z" fill="#0E7C74"/>
<path d="M1511.44 135.187C1511.44 135.187 1574.59 45.0057 1553.54 26.6514C1532.5 8.30871 1504.23 75.6426 1511.44 135.187Z" fill="#1D9F9D"/>
<path d="M1546.92 36.8674C1540.51 46.6425 1534.99 56.9515 1530.24 67.6321C1525.81 77.6277 1522.07 87.9135 1518.98 98.3967C1516.14 108.044 1513.84 117.854 1512.05 127.757C1510.46 136.591 1509.26 145.484 1508.42 154.423C1507.72 161.888 1507.28 169.388 1507.21 176.876C1507.2 177.7 1507.25 178.524 1507.24 179.348C1507.22 179.801 1507.93 179.801 1507.94 179.348C1508.01 175.935 1508.27 172.499 1508.48 169.097C1508.71 165.266 1508.99 161.435 1509.32 157.604C1510.08 148.874 1511.19 140.167 1512.68 131.53C1514.35 121.778 1516.5 112.096 1519.16 102.553C1522.06 92.1277 1525.58 81.8883 1529.73 71.9043C1534.17 61.2469 1539.43 50.9495 1545.34 41.0352C1546.09 39.7814 1546.86 38.5276 1547.62 37.2854C1547.9 36.8326 1547.21 36.4263 1546.92 36.8674Z" fill="#0E7C74"/>
<path d="M1513.33 92.0001C1513.19 95.9937 1513.43 99.9989 1513.69 103.992C1513.81 105.827 1513.97 107.649 1514.13 109.484C1514.2 110.308 1514.27 111.144 1514.38 111.98C1514.47 112.792 1514.53 113.698 1514.8 114.464C1514.9 114.719 1515.34 114.789 1515.39 114.464C1515.62 112.862 1515.29 111.097 1515.18 109.484C1515.04 107.661 1514.93 105.827 1514.82 103.992C1514.55 99.9989 1514.41 95.9937 1514.04 92.0001C1513.99 91.5589 1513.35 91.5473 1513.33 92.0001Z" fill="#0E7C74"/>
<path d="M1522.73 61.4214C1522.59 65.415 1522.84 69.4202 1523.09 73.4138C1523.21 75.248 1523.37 77.0707 1523.53 78.905C1523.6 79.7292 1523.67 80.5651 1523.78 81.401C1523.87 82.2136 1523.93 83.1191 1524.21 83.8853C1524.3 84.1407 1524.74 84.2104 1524.79 83.8853C1525.02 82.2833 1524.7 80.5186 1524.58 78.905C1524.44 77.0823 1524.34 75.248 1524.22 73.4138C1523.95 69.4202 1523.81 65.415 1523.44 61.4214C1523.4 60.9802 1522.75 60.9686 1522.73 61.4214Z" fill="#0E7C74"/>
<path d="M1536.98 33.6287C1536.36 36.9722 1536.27 40.4202 1536.29 43.8217C1536.31 45.5979 1536.37 47.3741 1536.49 49.1504C1536.6 50.7757 1536.55 52.6796 1537.09 54.2352C1537.19 54.4906 1537.63 54.5603 1537.67 54.2352C1537.92 52.6332 1537.62 50.8918 1537.55 49.2781C1537.47 47.5018 1537.43 45.7256 1537.42 43.9494C1537.38 40.5363 1537.54 37.1347 1537.67 33.7216C1537.69 33.3385 1537.05 33.234 1536.98 33.6287Z" fill="#0E7C74"/>
<path d="M1549.31 48.7207C1546.29 50.2995 1543.53 52.3776 1540.86 54.4905C1539.49 55.5818 1538.15 56.7195 1536.83 57.8804C1535.59 58.9833 1534.08 60.1094 1533.17 61.5257C1533.01 61.7927 1533.33 62.083 1533.59 61.9437C1534.98 61.1542 1536.17 59.8424 1537.37 58.7976C1538.71 57.6598 1540.07 56.5453 1541.44 55.4425C1544.11 53.3064 1546.88 51.3212 1549.66 49.3244C1550.03 49.0574 1549.71 48.5001 1549.31 48.7207Z" fill="#0E7C74"/>
<path d="M1547.43 54.0727C1544.41 55.6515 1541.65 57.7296 1538.98 59.8425C1537.61 60.9338 1536.27 62.0715 1534.95 63.2324C1533.7 64.3353 1532.2 65.4614 1531.29 66.8777C1531.13 67.1447 1531.45 67.435 1531.71 67.2957C1533.1 66.5062 1534.28 65.1944 1535.49 64.1495C1536.83 63.0118 1538.19 61.8973 1539.56 60.7945C1542.23 58.6583 1545 56.6732 1547.77 54.6764C1548.13 54.4093 1547.83 53.8521 1547.43 54.0727Z" fill="#0E7C74"/>
<path d="M1536.89 81.0644C1533.87 82.6432 1531.1 84.7213 1528.43 86.8342C1527.06 87.9255 1525.73 89.0632 1524.41 90.2241C1523.16 91.327 1521.65 92.4531 1520.75 93.8694C1520.59 94.1364 1520.91 94.4267 1521.17 94.2874C1522.56 93.4979 1523.74 92.1861 1524.95 91.1412C1526.29 90.0035 1527.64 88.889 1529.01 87.7861C1531.68 85.65 1534.46 83.6648 1537.23 81.668C1537.61 81.4126 1537.29 80.8554 1536.89 81.0644Z" fill="#0E7C74"/>
<path d="M1505.06 111.446C1505.06 111.446 1441.5 21.555 1462.47 3.10785C1483.44 -15.3393 1512.01 51.8669 1505.06 111.446Z" fill="#259E78"/>
<path d="M1468.44 13.6957C1474.64 23.5288 1480.14 33.803 1484.84 44.4255C1489.25 54.3747 1492.99 64.6257 1496.1 75.0508C1498.98 84.6749 1501.31 94.4616 1503.18 104.329C1504.83 113.094 1506.1 121.918 1506.99 130.787C1507.75 138.24 1508.23 145.705 1508.6 153.181C1508.64 153.982 1508.73 154.783 1508.76 155.573C1508.77 156.026 1509.48 156.026 1509.46 155.573C1509.38 152.102 1509.38 148.642 1509.22 145.183C1509.05 141.352 1508.79 137.52 1508.44 133.689C1507.66 124.924 1506.54 116.194 1505.04 107.522C1503.35 97.7006 1501.15 87.972 1498.44 78.3943C1495.47 67.9924 1491.91 57.7646 1487.65 47.8154C1483.09 37.1929 1477.81 26.849 1471.61 17.074C1470.79 15.797 1469.98 14.5316 1469.14 13.2778C1468.85 12.8482 1468.16 13.2429 1468.44 13.6957Z" fill="#0E7C74"/>
<path d="M1502.28 68.2708C1501.92 72.2528 1501.8 76.2696 1501.56 80.2632C1501.44 82.0975 1501.35 83.9202 1501.22 85.7544C1501.12 87.3565 1500.79 89.1327 1501.04 90.7348C1501.08 91.0599 1501.53 90.9902 1501.62 90.7348C1501.87 89.9918 1501.92 89.1444 1502.01 88.3665C1502.12 87.4958 1502.17 86.6251 1502.25 85.7544C1502.42 83.9318 1502.57 82.0975 1502.67 80.2632C1502.9 76.2813 1503.14 72.2644 1502.97 68.2708C1502.96 67.8181 1502.31 67.8297 1502.28 68.2708Z" fill="#0E7C74"/>
<path d="M1492.74 37.7268C1492.38 41.7088 1492.26 45.7256 1492.02 49.7192C1491.9 51.5535 1491.81 53.3762 1491.68 55.2104C1491.57 56.8125 1491.25 58.5887 1491.49 60.1908C1491.54 60.5159 1491.99 60.4462 1492.07 60.1908C1492.33 59.4478 1492.38 58.6003 1492.47 57.8225C1492.57 56.9518 1492.63 56.0811 1492.71 55.2104C1492.87 53.3878 1493.03 51.5535 1493.13 49.7192C1493.36 45.7373 1493.59 41.7204 1493.43 37.7268C1493.42 37.2741 1492.78 37.2857 1492.74 37.7268Z" fill="#0E7C74"/>
<path d="M1478.39 10.0965C1478.54 13.4981 1478.71 16.9112 1478.69 20.3243C1478.68 22.0541 1478.65 23.7955 1478.58 25.5253C1478.51 27.1738 1478.21 28.9732 1478.47 30.6102C1478.51 30.9352 1478.97 30.8656 1479.05 30.6102C1479.32 29.8556 1479.36 28.9849 1479.44 28.1838C1479.52 27.3015 1479.57 26.4076 1479.63 25.5137C1479.73 23.7375 1479.8 21.9612 1479.8 20.185C1479.8 16.7951 1479.7 13.3471 1479.07 10.0037C1479 9.60894 1478.36 9.70182 1478.39 10.0965Z" fill="#0E7C74"/>
<path d="M1466.45 25.7461C1469.24 27.7312 1472.02 29.6932 1474.71 31.8177C1476.04 32.8858 1477.38 33.9538 1478.69 35.0683C1479.34 35.6256 1479.99 36.1944 1480.64 36.7633C1481.25 37.2857 1481.88 37.8894 1482.59 38.2841C1482.84 38.4234 1483.17 38.1332 1483.01 37.8662C1482.12 36.4963 1480.65 35.3934 1479.44 34.3253C1478.1 33.1412 1476.73 31.9802 1475.31 30.8658C1472.64 28.7645 1469.85 26.7096 1466.83 25.1424C1466.41 24.9334 1466.09 25.4906 1466.45 25.7461Z" fill="#0E7C74"/>
<path d="M1468.37 31.0864C1471.15 33.0716 1473.94 35.0335 1476.62 37.158C1477.96 38.2261 1479.29 39.2942 1480.6 40.4086C1481.25 40.9659 1481.9 41.5347 1482.55 42.1036C1483.17 42.626 1483.8 43.2297 1484.5 43.6244C1484.76 43.7637 1485.08 43.4735 1484.92 43.2065C1484.04 41.8366 1482.57 40.7337 1481.36 39.6657C1480.01 38.4815 1478.64 37.3206 1477.23 36.2061C1474.56 34.1048 1471.77 32.05 1468.75 30.4827C1468.31 30.2737 1468 30.831 1468.37 31.0864Z" fill="#0E7C74"/>
<path d="M1479.02 58.0433C1481.81 60.0285 1484.6 61.9905 1487.28 64.115C1488.61 65.183 1489.95 66.2511 1491.26 67.3656C1491.91 67.9228 1492.56 68.4917 1493.21 69.0605C1493.83 69.5829 1494.45 70.1866 1495.16 70.5813C1495.42 70.7206 1495.74 70.4304 1495.58 70.1634C1494.7 68.7935 1493.22 67.6906 1492.02 66.6226C1490.67 65.4384 1489.3 64.2775 1487.88 63.163C1485.21 61.0617 1482.43 59.0069 1479.41 57.4396C1478.97 57.219 1478.65 57.7763 1479.02 58.0433Z" fill="#0E7C74"/>
<path d="M1499.17 137.671C1499.17 137.671 1538.28 83.9203 1525.78 72.6012C1513.27 61.2937 1495.46 101.636 1499.17 137.671Z" fill="#3FC7A1"/>
<path d="M1521.51 78.6147C1513.74 89.8525 1507.98 102.414 1503.88 115.428C1500.42 126.422 1498.17 137.776 1496.89 149.234C1496.35 154.203 1495.83 159.288 1496 164.291C1496.01 164.756 1496.66 164.732 1496.71 164.291C1497.18 159.949 1497.4 155.573 1497.87 151.231C1498.42 145.949 1499.2 140.69 1500.2 135.477C1502.56 123.194 1506.14 111.132 1511.16 99.6624C1514.28 92.5111 1518.02 85.6151 1522.22 79.0327C1522.51 78.5799 1521.82 78.1852 1521.51 78.6147Z" fill="#0E7C74"/>
<path d="M1500.78 111.62C1500.65 114.046 1500.76 116.484 1500.87 118.911C1500.92 120.002 1501 121.093 1501.08 122.184C1501.15 123.171 1501.16 124.228 1501.43 125.191C1501.49 125.4 1501.77 125.342 1501.79 125.145C1501.91 124.135 1501.76 123.078 1501.71 122.08C1501.65 120.989 1501.6 119.886 1501.55 118.794C1501.43 116.403 1501.4 114.011 1501.21 111.632C1501.19 111.341 1500.79 111.341 1500.78 111.62Z" fill="#0E7C74"/>
<path d="M1506.78 93.2543C1506.65 95.6806 1506.76 98.1185 1506.88 100.545C1506.92 101.636 1507 102.727 1507.08 103.819C1507.15 104.806 1507.17 105.862 1507.43 106.826C1507.49 107.034 1507.77 106.976 1507.79 106.779C1507.91 105.769 1507.76 104.713 1507.71 103.714C1507.65 102.623 1507.61 101.52 1507.55 100.429C1507.43 98.0373 1507.4 95.6458 1507.21 93.2659C1507.19 92.9872 1506.81 92.9872 1506.78 93.2543Z" fill="#0E7C74"/>
<path d="M1515.69 76.6295C1515.28 78.6495 1515.19 80.7276 1515.16 82.7708C1515.15 83.8505 1515.18 84.9301 1515.22 86.0098C1515.27 87.0082 1515.25 88.0995 1515.54 89.0747C1515.59 89.2836 1515.87 89.2256 1515.9 89.0282C1516.02 88.0414 1515.88 87.0082 1515.86 86.0214C1515.84 84.9418 1515.83 83.8621 1515.84 82.7824C1515.86 80.7508 1515.99 78.7192 1516.1 76.6875C1516.12 76.4554 1515.74 76.3973 1515.69 76.6295Z" fill="#0E7C74"/>
<path d="M1522.97 85.8707C1521.1 86.8111 1519.38 88.0417 1517.73 89.3187C1516.92 89.9456 1516.12 90.5957 1515.34 91.2691C1514.57 91.9192 1513.67 92.5925 1513.1 93.4284C1512.99 93.5909 1513.2 93.765 1513.35 93.6838C1514.2 93.2078 1514.92 92.4532 1515.66 91.8379C1516.5 91.1414 1517.36 90.468 1518.23 89.8063C1519.84 88.5641 1521.53 87.4148 1523.2 86.2538C1523.41 86.0797 1523.22 85.7546 1522.97 85.8707Z" fill="#0E7C74"/>
<path d="M1521.77 89.0864C1519.9 90.0267 1518.18 91.2573 1516.53 92.5343C1515.72 93.1612 1514.92 93.8113 1514.14 94.4847C1513.38 95.1348 1512.47 95.8081 1511.9 96.644C1511.8 96.8065 1512.01 96.9807 1512.16 96.8994C1513.01 96.4234 1513.72 95.6688 1514.47 95.0535C1515.3 94.357 1516.16 93.6836 1517.03 93.0219C1518.65 91.7797 1520.33 90.6304 1522 89.4695C1522.21 89.2953 1522.01 88.9587 1521.77 89.0864Z" fill="#0E7C74"/>
<path d="M1515.12 105.27C1513.25 106.21 1511.53 107.441 1509.88 108.718C1509.07 109.345 1508.27 109.995 1507.49 110.668C1506.72 111.318 1505.82 111.991 1505.25 112.827C1505.15 112.99 1505.35 113.164 1505.51 113.083C1506.35 112.607 1507.07 111.852 1507.82 111.237C1508.65 110.54 1509.51 109.867 1510.38 109.205C1512 107.963 1513.68 106.814 1515.35 105.653C1515.55 105.479 1515.36 105.142 1515.12 105.27Z" fill="#0E7C74"/>
<path d="M1525.43 176.759L1525.15 178.617L1524.57 182.576L1518.9 220.573H1485.13L1479.48 182.576L1478.89 178.617L1478.61 176.759H1525.43Z" fill="#F7BF38"/>
<path d="M1525.15 178.617L1524.57 182.576H1479.48L1478.89 178.617H1525.15Z" fill="#F49A38"/>
<path d="M1526.09 180.324H1477.95C1476.4 180.324 1475.15 179.07 1475.15 177.526C1475.15 175.982 1476.4 174.728 1477.95 174.728H1526.09C1527.63 174.728 1528.89 175.982 1528.89 177.526C1528.89 179.081 1527.63 180.324 1526.09 180.324Z" fill="#F7BF38"/>
<path d="M1280.34 334.437C1264.36 334.437 1250.18 337.177 1244.81 338.349C1243.46 338.639 1242.53 339.847 1242.57 341.228C1242.75 346.894 1243.48 362.009 1246.35 377.461C1249.83 396.175 1259.63 408.678 1270.58 408.678H1280.34H1280.37H1290.13C1301.08 408.678 1310.88 396.175 1314.36 377.461C1317.23 362.021 1317.96 346.917 1318.14 341.24C1318.19 339.858 1317.25 338.651 1315.89 338.361C1310.4 337.188 1295.89 334.437 1280.34 334.437Z" fill="#69AAEC"/>
<g opacity="0.55">
<path opacity="0.55" d="M1305.33 220.561C1304.27 218.564 1302.2 216.939 1299.95 217.102C1298.36 217.218 1296.98 218.158 1295.46 218.646C1293.95 219.133 1291.93 218.936 1291.27 217.485C1290.93 216.765 1291.05 215.894 1291.35 215.163C1291.96 213.689 1293.36 212.574 1294.94 212.295C1296.5 212.017 1298.21 212.597 1299.29 213.77C1297.72 210.206 1294.16 207.687 1290.33 207.013C1287.06 206.444 1281.59 207.118 1279.02 209.486C1276.91 211.425 1277.27 214.931 1277.99 217.833C1277.56 218.17 1277.09 218.472 1276.59 218.692C1274.98 219.412 1273.18 219.667 1271.52 220.283C1267.04 221.954 1264.4 227.039 1265.34 231.671C1266.66 238.045 1272.44 244.836 1278.88 245.777C1277.01 245.51 1276.93 241.052 1278.35 238.59C1279.76 236.129 1282.68 235.665 1282.82 240.332C1282.84 241.11 1282.69 241.876 1282.73 242.642C1282.9 244.976 1284.99 246.81 1287.25 247.402C1289.5 247.994 1291.89 247.623 1294.19 247.17C1293.43 245.73 1292.15 244.651 1291.1 243.397C1290.06 242.155 1289.2 240.552 1289.51 238.95C1290.63 239.113 1291.06 240.436 1291.66 241.388C1293.64 244.5 1297.79 243.014 1300.64 242.34C1303.91 241.562 1307.76 240.692 1310.3 242.909C1309.87 240.599 1309.42 238.265 1308.4 236.141C1307.38 234.028 1305.71 232.124 1303.49 231.346C1302.15 230.882 1300.64 230.835 1299.38 230.151C1296.65 228.653 1297.91 225.913 1300.64 225.762C1303.06 225.623 1306.32 227.237 1306.96 229.686C1306.17 226.61 1306.91 223.556 1305.33 220.561Z" fill="#42C6A1"/>
<path opacity="0.55" d="M1278.38 218.739C1282.93 218.948 1286.43 225.588 1289.02 228.653C1291.13 231.161 1293.45 233.529 1296.51 234.794C1296.83 234.922 1297 234.434 1296.74 234.272C1292.5 231.555 1289.65 228.096 1286.54 224.218C1284.42 221.56 1282.14 218.135 1278.38 218.251C1278.06 218.263 1278.07 218.727 1278.38 218.739Z" fill="#6EE5BD"/>
<path opacity="0.55" d="M1275.36 234.086C1275.33 233.355 1275.51 232.693 1275.92 232.078C1276.04 231.857 1275.73 231.578 1275.55 231.799C1274.93 232.519 1274.72 233.157 1274.62 234.086C1274.57 234.55 1275.35 234.574 1275.36 234.086Z" fill="#659AC1"/>
<path opacity="0.55" d="M1277.22 229.651C1278.89 226.958 1284.22 223.986 1282.84 220.178C1282.72 219.865 1282.3 219.923 1282.27 220.259C1282.04 222.744 1281.13 224.253 1279.43 226.052C1278.44 227.097 1277.56 228.177 1276.94 229.489C1276.84 229.674 1277.1 229.825 1277.22 229.651Z" fill="#6EE5BD"/>
<path opacity="0.55" d="M1285.51 232.217C1286.26 229.988 1287.77 226.993 1286.43 224.741C1286.26 224.462 1285.74 224.648 1285.87 224.973C1286.8 227.33 1286.11 229.86 1285.47 232.217C1285.47 232.229 1285.51 232.229 1285.51 232.217Z" fill="#6EE5BD"/>
<path opacity="0.55" d="M1299.8 222.929C1297.91 222.349 1296.13 222.488 1294.23 222.999C1291.55 223.719 1289.26 225.309 1286.41 224.253C1285.93 224.067 1285.68 224.787 1286.08 225.054C1287.49 226.018 1289.04 225.809 1290.62 225.309C1293.73 224.323 1296.34 222.5 1299.78 223.034C1299.84 223.046 1299.87 222.941 1299.8 222.929Z" fill="#6EE5BD"/>
<path opacity="0.55" d="M1289.39 211.483C1288.03 212.458 1286.94 213.654 1286.16 215.14C1285.82 215.778 1285.59 216.463 1285.29 217.113C1284.68 218.437 1283.71 219.191 1282.53 220.016C1281.75 220.561 1282.49 221.85 1283.28 221.293C1284.57 220.387 1285.97 219.215 1286.4 217.636C1287.04 215.267 1287.73 213.491 1289.64 211.796C1289.8 211.657 1289.57 211.355 1289.39 211.483Z" fill="#6EE5BD"/>
<path opacity="0.55" d="M1292.93 235.618C1292.11 234.074 1292.09 232.67 1291.79 231.033C1291.74 230.777 1291.35 230.789 1291.29 231.033C1290.87 232.704 1291.58 234.492 1292.42 235.932C1292.6 236.269 1293.1 235.967 1292.93 235.618Z" fill="#6EE5BD"/>
</g>
<path d="M1295.81 185.478C1294.3 181.148 1291.6 176.028 1286.4 178.896C1279.69 182.587 1281.82 193.523 1281.7 199.386C1281.09 230.139 1279.38 316.199 1282.69 346.824C1282.79 347.753 1284.15 347.799 1284.17 346.824C1284.56 326.868 1283.8 252.406 1283.67 232.449C1283.62 223.127 1283.65 213.805 1283.78 204.482C1283.85 199.305 1283.9 194.115 1284.07 188.938C1284.14 186.825 1283.76 183.609 1285.81 182.169C1288.66 180.184 1293.24 182.994 1294.67 185.942C1294.98 186.581 1296.04 186.14 1295.81 185.478Z" fill="#0E7C74"/>
<path d="M1264.46 175.912C1271 191.387 1271.64 211.436 1273.49 227.933C1275.28 243.71 1275.93 330.722 1277.49 346.522C1277.58 347.405 1278.88 347.439 1278.89 346.522C1279.07 328.377 1277.09 238.916 1274.81 220.933C1272.9 205.957 1272.14 188.926 1265.95 175.041C1265.51 174.008 1264.04 174.902 1264.46 175.912Z" fill="#0E7C74"/>
<path d="M1256.47 199.247C1262.23 202.938 1262.66 211.088 1263.74 216.997C1264.8 222.767 1265.74 228.56 1266.6 234.365C1268.32 245.939 1269.16 335.737 1271.02 347.288C1271.15 348.113 1272.46 347.904 1272.45 347.091C1272.3 332.452 1269.92 239.473 1267.32 225.089C1265.77 216.579 1265.61 202.996 1257.24 197.923C1256.39 197.424 1255.65 198.713 1256.47 199.247Z" fill="#0E7C74"/>
<path d="M1299.17 227.434C1292.72 226.354 1291.84 241.888 1291.04 245.637C1288.06 259.452 1285.47 332.092 1286.38 346.22C1286.4 346.627 1286.98 346.627 1287.01 346.22C1287.53 339.766 1290.57 226.912 1299.12 227.782C1299.32 227.806 1299.37 227.469 1299.17 227.434Z" fill="#0E7C74"/>
<path d="M1316.96 194.104C1316.62 193.337 1316.2 192.618 1315.68 191.956C1315.08 191.201 1314.32 190.516 1313.41 190.214C1312.62 189.959 1311.77 189.994 1310.95 189.936C1309.84 189.866 1308.76 189.622 1307.73 189.216C1306.95 188.914 1306.13 188.403 1306.02 187.579C1305.94 186.929 1306.36 186.314 1306.88 185.919C1307.86 185.164 1309.24 184.99 1310.38 185.466C1311.03 185.745 1311.58 186.209 1312.22 186.523C1312.86 186.825 1313.67 186.952 1314.24 186.534C1314.87 186.082 1314.96 185.141 1314.66 184.421C1314.36 183.713 1313.75 183.179 1313.16 182.68C1311.47 181.24 1309.7 179.836 1307.69 178.884C1305.69 177.92 1303.4 177.421 1301.21 177.851C1299.02 178.292 1296.99 179.778 1296.25 181.867C1296 182.552 1295.9 183.295 1295.53 183.922C1294.97 184.851 1293.93 185.373 1292.9 185.733C1291.65 186.174 1290.35 186.453 1289.03 186.558C1287.87 186.65 1286.65 186.627 1285.59 187.126C1284.73 187.533 1284.07 188.264 1283.54 189.054C1282.01 191.329 1281.52 194.196 1281.85 196.913C1282.19 199.63 1283.3 202.207 1284.77 204.517C1285.31 205.376 1285.92 206.212 1286.72 206.827C1287.52 207.443 1289.57 208.383 1290.57 208.22C1291.53 207.953 1290.95 206.63 1290.57 206.108C1289.65 204.842 1288.97 203.298 1289.44 201.812C1289.87 200.465 1291.07 200.872 1292.02 202.126C1294.04 204.784 1291.55 206.05 1294.23 209.741C1294.76 210.484 1298.12 212.4 1299.02 212.493C1299.72 212.562 1300.9 213.073 1301.52 212.551C1302.47 211.761 1300.89 210.357 1300.44 209.73C1299.82 208.871 1299.36 207.837 1299.29 206.769C1299.27 206.514 1299.5 204.529 1299.44 204.506C1300.46 205.028 1300.3 206.34 1300.66 207.257C1301.33 208.998 1303.7 209.614 1305.36 209.776C1306.92 209.915 1308.48 209.753 1310.03 210.008C1311.31 210.217 1312.54 210.728 1313.59 211.483C1313.91 211.703 1314.24 211.959 1314.61 211.947C1315.47 211.924 1315.69 210.751 1315.64 209.904C1315.39 206.584 1314.6 202.973 1311.96 200.965C1311.49 200.605 1310.97 200.315 1310.57 199.873C1310.19 199.432 1309.96 198.782 1310.19 198.248C1310.6 197.331 1312.01 197.412 1312.78 198.062C1313.56 198.701 1313.99 199.676 1314.73 200.361C1315.47 201.046 1316.82 201.301 1317.38 200.454C1317.53 200.222 1317.6 199.955 1317.64 199.688C1317.95 197.807 1317.7 195.845 1316.96 194.104Z" fill="#42C6A1"/>
<path d="M1296 185.188C1299.84 186.616 1300.74 193.128 1302.12 196.53C1303.1 198.933 1304.29 201.174 1306.17 202.985C1306.3 203.112 1306.49 202.927 1306.37 202.787C1303.18 199.061 1301.99 194.638 1300.22 190.168C1299.34 187.951 1298.48 185.745 1296.06 184.967C1295.91 184.909 1295.85 185.13 1296 185.188Z" fill="#83F2D0"/>
<path d="M1289.25 196.693C1289.46 196.077 1289.8 195.59 1290.32 195.218C1290.41 195.137 1290.28 194.974 1290.18 195.044C1289.56 195.462 1289.22 195.857 1288.92 196.553C1288.82 196.797 1289.15 196.936 1289.25 196.693Z" fill="#83F2D0"/>
<path d="M1292.03 193.651C1294.19 191.817 1298.79 191.051 1299.05 187.614C1299.06 187.452 1298.83 187.44 1298.77 187.579C1297.64 190.911 1294.22 191.318 1291.92 193.535C1291.85 193.605 1291.95 193.709 1292.03 193.651Z" fill="#83F2D0"/>
<path d="M1298.01 198.004C1299.23 196.356 1301.01 194.464 1300.68 192.269C1300.66 192.107 1300.38 192.142 1300.39 192.304C1300.55 194.429 1299.16 196.321 1298 197.993C1298 198.004 1298.01 198.016 1298.01 198.004Z" fill="#83F2D0"/>
<path d="M1311.99 194.464C1310.74 193.593 1309.4 193.256 1307.88 193.152C1305.49 192.989 1302.8 193.802 1300.85 192.014C1300.64 191.828 1300.38 192.107 1300.54 192.316C1301.41 193.419 1302.71 193.639 1304.06 193.674C1306.81 193.721 1309.42 193.036 1311.97 194.51C1311.99 194.522 1312.01 194.475 1311.99 194.464Z" fill="#83F2D0"/>
<path d="M1306.77 182.518C1305.54 182.936 1304.41 183.539 1303.46 184.433C1303.04 184.816 1302.7 185.257 1302.33 185.687C1301.34 186.801 1300.37 187.289 1298.96 187.695C1298.52 187.823 1298.71 188.52 1299.15 188.392C1300.37 188.02 1301.67 187.544 1302.46 186.5C1303.74 184.828 1304.78 183.528 1306.81 182.715C1306.94 182.668 1306.89 182.471 1306.77 182.518Z" fill="#83F2D0"/>
<path d="M1302.92 202.776C1302.69 201.371 1302.92 200.152 1303.27 198.794C1303.31 198.655 1303.11 198.562 1303.04 198.701C1302.39 200.013 1302.38 201.441 1302.64 202.857C1302.68 203.031 1302.96 202.95 1302.92 202.776Z" fill="#83F2D0"/>
<path d="M1230.7 229.872C1230.9 228.607 1231.27 227.353 1231.79 226.18C1232.41 224.822 1233.26 223.522 1234.52 222.709C1235.6 222.024 1236.88 221.745 1238.09 221.351C1239.7 220.817 1241.22 220.039 1242.6 219.052C1243.65 218.309 1244.69 217.218 1244.53 215.952C1244.4 214.954 1243.54 214.199 1242.62 213.793C1240.88 213.039 1238.75 213.306 1237.25 214.455C1236.38 215.117 1235.74 216.022 1234.9 216.73C1234.07 217.427 1232.91 217.926 1231.9 217.52C1230.78 217.079 1230.28 215.709 1230.47 214.525C1230.66 213.34 1231.35 212.319 1232.05 211.344C1234.03 208.546 1236.12 205.783 1238.76 203.589C1241.38 201.383 1244.61 199.757 1248.03 199.572C1251.46 199.386 1255.06 200.826 1256.97 203.67C1257.6 204.599 1258.04 205.667 1258.84 206.456C1260.03 207.629 1261.78 208.012 1263.44 208.151C1265.47 208.325 1267.53 208.244 1269.55 207.896C1271.32 207.594 1273.12 207.083 1274.89 207.431C1276.31 207.71 1277.59 208.546 1278.68 209.521C1281.83 212.33 1283.66 216.417 1284.2 220.596C1284.74 224.776 1284.06 229.048 1282.76 233.053C1282.28 234.539 1281.7 236.013 1280.74 237.244C1279.77 238.474 1277.07 240.657 1275.51 240.796C1273.97 240.762 1274.34 238.556 1274.7 237.65C1275.59 235.421 1276.02 232.856 1274.75 230.812C1273.59 228.966 1271.96 230.035 1271.03 232.252C1269.04 236.988 1273.25 237.917 1270.65 244.442C1270.13 245.742 1265.87 249.886 1264.55 250.386C1263.54 250.769 1261.98 251.976 1260.85 251.43C1259.13 250.606 1260.94 247.913 1261.37 246.81C1261.97 245.289 1262.26 243.571 1261.97 241.946C1261.9 241.563 1260.8 238.683 1260.87 238.625C1259.55 239.798 1260.29 241.69 1260.11 243.188C1259.77 246.032 1256.47 247.866 1254.05 248.737C1251.78 249.538 1249.38 249.898 1247.19 250.862C1245.36 251.674 1243.72 252.893 1242.43 254.426C1242.04 254.878 1241.65 255.378 1241.07 255.517C1239.78 255.807 1239 254.159 1238.77 252.858C1237.86 247.82 1237.67 242.131 1240.85 238.126C1241.42 237.418 1242.08 236.78 1242.49 235.967C1242.89 235.154 1243 234.109 1242.44 233.401C1241.48 232.182 1239.41 232.856 1238.5 234.109C1237.6 235.363 1237.32 236.977 1236.48 238.277C1235.65 239.577 1233.72 240.471 1232.58 239.426C1232.27 239.148 1232.07 238.765 1231.9 238.382C1230.63 235.77 1230.25 232.751 1230.7 229.872Z" fill="#42C6A1"/>
<path d="M1258.38 208.313C1255.53 210.136 1254.69 212.98 1254.19 216.208C1252.98 224.009 1253.51 231.567 1249.85 238.811C1249.76 238.974 1250 239.113 1250.09 238.95C1252.11 235.502 1253.05 231.903 1253.61 227.945C1254.41 222.291 1253.12 212.202 1258.49 208.522C1258.63 208.429 1258.52 208.22 1258.38 208.313Z" fill="#83F2D0"/>
<path d="M1273.39 222.93C1272.75 222.047 1272.01 221.444 1270.96 221.107C1270.85 221.072 1270.75 221.258 1270.87 221.316C1271.8 221.734 1272.5 222.256 1273.08 223.115C1273.22 223.301 1273.53 223.115 1273.39 222.93Z" fill="#83F2D0"/>
<path d="M1267.78 219.505C1263.54 217.125 1258.01 217.891 1255.24 213.236C1255.16 213.108 1254.93 213.19 1254.99 213.34C1256.8 218.298 1263.78 217.647 1267.7 219.644C1267.79 219.679 1267.87 219.551 1267.78 219.505Z" fill="#83F2D0"/>
<path d="M1259.97 228.444C1257.64 226.459 1254.61 224.125 1254.15 220.898C1254.13 220.735 1253.86 220.77 1253.86 220.933C1254.04 224.207 1257.66 226.587 1259.97 228.444C1259.97 228.467 1259.97 228.456 1259.97 228.444Z" fill="#83F2D0"/>
<path d="M1237.81 228.56C1241 225.321 1245.14 225.321 1249.25 224.183C1251.23 223.638 1252.98 222.813 1253.91 220.886C1254.02 220.642 1253.69 220.433 1253.54 220.677C1251.41 224.137 1246.89 223.997 1243.4 225.089C1241.2 225.785 1239.32 226.772 1237.77 228.525C1237.75 228.548 1237.78 228.583 1237.81 228.56Z" fill="#83F2D0"/>
<path d="M1241.28 208.267C1244.7 208.673 1246.66 210.183 1249.29 212.156C1250.9 213.363 1252.91 213.572 1254.87 213.654C1255.34 213.677 1255.34 212.957 1254.87 212.934C1252.98 212.864 1251.23 212.679 1249.64 211.622C1248.7 210.995 1247.88 210.241 1246.89 209.683C1245.14 208.708 1243.25 208.221 1241.28 208.058C1241.15 208.058 1241.16 208.244 1241.28 208.267Z" fill="#83F2D0"/>
<path d="M1255.29 237.441C1255.17 235.317 1254.59 233.065 1253.14 231.439C1253.05 231.335 1252.88 231.474 1252.95 231.59C1254 233.506 1254.84 235.212 1255 237.43C1255.01 237.627 1255.3 237.639 1255.29 237.441Z" fill="#83F2D0"/>
<path d="M1287.94 227.353C1290.69 222.21 1297.19 219.481 1302.74 221.42C1304.79 222.14 1306.68 223.313 1308.79 223.905C1309.42 224.079 1310.1 224.16 1310.77 224.183C1312.36 220.875 1314.79 217.276 1318.31 217.09C1322.6 216.869 1328.31 220.538 1330.96 223.638C1332.77 225.762 1334.16 228.13 1334.23 230.998C1334.25 231.543 1334.2 232.112 1333.87 232.554C1333.43 233.146 1332.6 233.285 1331.87 233.238C1331.13 233.192 1330.39 233.006 1329.66 233.111C1328.51 233.273 1327.53 234.214 1327.23 235.34C1326.94 236.466 1327.3 237.72 1328.08 238.579C1328.39 238.927 1328.78 239.217 1329.17 239.484C1330.23 239.786 1331.25 240.134 1332.13 240.761C1333.9 242.027 1334.67 244.256 1334.69 246.369C1334.7 248.203 1333.82 249.77 1333.18 251.43C1332.74 252.568 1330.98 257.746 1329.03 255.981C1328.64 255.621 1328.58 255.029 1328.51 254.507C1328.31 252.997 1327.63 251.349 1326.19 250.85C1325.31 250.548 1324.25 250.78 1323.58 251.43C1322.9 252.08 1322.64 253.125 1322.93 254.019C1323.12 254.646 1323.55 255.168 1323.9 255.714C1324.55 256.712 1324.96 257.839 1325.14 259.011C1325.77 261.066 1325.69 263.353 1325.17 265.454C1324.47 268.264 1323.04 270.818 1321.64 273.349C1320.98 269.262 1316.65 267.045 1312.93 265.21C1309.7 263.608 1304.59 261.739 1305.18 257.246C1305.35 255.877 1305.99 254.274 1305.06 253.253C1303.5 254.518 1303.06 256.712 1303.07 258.709C1303.07 259.835 1303.19 260.961 1303.21 262.088C1303.23 262.645 1303.55 264.061 1302.77 264.305C1302.54 264.375 1302.3 264.27 1302.08 264.166C1299.86 263.086 1297.71 261.472 1296.27 259.452C1294.6 257.107 1294.07 253.729 1295.74 251.395C1296.29 250.629 1297.05 250.014 1297.63 249.271C1301.16 244.755 1298.05 242.897 1294.77 244.116C1293.46 244.604 1292.24 245.393 1291.31 246.45C1290.8 247.03 1290.45 247.727 1290.19 248.447C1289.98 249.004 1290.07 249.817 1289.62 250.258C1288.48 251.372 1287.51 248.261 1287.23 247.68C1286.6 246.334 1286.14 244.917 1285.82 243.466C1285.17 240.471 1285.14 237.337 1285.63 234.307C1286.04 231.903 1286.77 229.512 1287.94 227.353Z" fill="#1D9E99"/>
<path d="M1310.45 225.309C1314.74 229.477 1312.67 238.765 1312.81 244.07C1312.91 247.855 1313.38 251.337 1315.01 254.774C1315.15 255.064 1315.64 254.867 1315.53 254.553C1313.36 247.971 1313.8 241.771 1313.78 234.992C1313.77 231.184 1313.85 227.562 1310.79 224.961C1310.55 224.752 1310.21 225.077 1310.45 225.309Z" fill="#37E2D6"/>
<path d="M1295.41 237.499C1296.03 236.768 1296.67 236.362 1297.57 236.013C1297.85 235.909 1297.75 235.514 1297.44 235.561C1296.39 235.735 1295.63 236.199 1294.89 236.965C1294.55 237.314 1295.11 237.859 1295.41 237.499Z" fill="#37E2D6"/>
<path d="M1300.72 234.748C1304.34 233.529 1311.73 234.782 1313.46 230.15C1313.57 229.872 1313.17 229.674 1312.98 229.872C1311.07 231.88 1309.24 232.716 1306.5 233.076C1304.44 233.355 1302.49 233.598 1300.58 234.446C1300.43 234.515 1300.54 234.806 1300.72 234.748Z" fill="#37E2D6"/>
<path d="M1306.96 243.733C1309.32 242.271 1313.3 240.448 1313.66 237.313C1313.7 236.965 1313.16 236.919 1313.07 237.232C1312.13 240.192 1309.4 242.027 1306.95 243.71C1306.94 243.71 1306.95 243.733 1306.96 243.733Z" fill="#37E2D6"/>
<path d="M1327.87 246.183C1326.52 244.082 1324.55 242.828 1322.29 241.841C1319.22 240.506 1315.86 240.169 1314.1 236.977C1313.86 236.536 1313.19 236.837 1313.3 237.313C1313.8 239.38 1315.69 240.436 1317.55 241.156C1321.2 242.584 1325.17 243.025 1327.79 246.241C1327.81 246.299 1327.89 246.229 1327.87 246.183Z" fill="#37E2D6"/>
<path d="M1327.04 227.132C1324.9 227.028 1322.93 227.329 1320.96 228.2C1319.98 228.641 1319.07 229.291 1318.06 229.663C1316.67 230.162 1315.18 230.058 1313.72 229.942C1312.77 229.86 1312.77 231.358 1313.72 231.428C1315.41 231.555 1317.41 231.567 1318.93 230.708C1320.04 230.081 1320.92 229.187 1322.09 228.641C1323.66 227.91 1325.31 227.608 1327.04 227.562C1327.3 227.538 1327.3 227.144 1327.04 227.132Z" fill="#37E2D6"/>
<path d="M1310.85 252.812C1311.27 250.687 1312.42 249.375 1313.38 247.541C1313.5 247.32 1313.26 247.03 1313.02 247.181C1311.34 248.307 1310.56 250.745 1310.26 252.638C1310.2 253.021 1310.77 253.195 1310.85 252.812Z" fill="#37E2D6"/>
<path d="M1292.27 279.432C1293 272.339 1288.23 265.013 1281.21 263.051C1278.61 262.32 1275.86 262.169 1273.31 261.287C1272.53 261.02 1271.79 260.625 1271.08 260.172C1271.73 255.726 1271.74 250.409 1268.26 247.75C1264.01 244.5 1255.63 244.163 1250.79 245.417C1247.47 246.276 1244.4 247.669 1242.36 250.502C1241.97 251.036 1241.63 251.651 1241.65 252.313C1241.7 253.218 1242.44 253.95 1243.23 254.414C1244.02 254.89 1244.9 255.215 1245.57 255.83C1246.64 256.806 1246.99 258.442 1246.51 259.778C1246.04 261.113 1244.81 262.111 1243.41 262.424C1242.85 262.552 1242.26 262.575 1241.67 262.564C1240.38 262.134 1239.1 261.751 1237.75 261.763C1235.06 261.798 1232.73 263.481 1231.26 265.594C1229.98 267.428 1229.8 269.622 1229.31 271.735C1228.97 273.186 1227.2 279.618 1230.41 279.223C1231.06 279.142 1231.53 278.585 1231.97 278.109C1233.21 276.727 1235.06 275.566 1236.87 276.077C1237.98 276.39 1238.9 277.366 1239.14 278.492C1239.37 279.618 1238.93 280.848 1238.03 281.557C1237.39 282.044 1236.6 282.265 1235.86 282.567C1234.51 283.112 1233.3 283.96 1232.3 285.005C1230.25 286.63 1228.75 288.975 1227.83 291.459C1226.62 294.768 1226.3 298.344 1226 301.861C1229.49 298.227 1235.46 299.052 1240.52 299.818C1244.93 300.491 1251.45 302.198 1253.96 297.287C1254.72 295.79 1255.17 293.735 1256.83 293.352C1257.55 295.72 1256.49 298.227 1255.1 300.224C1254.32 301.35 1253.42 302.395 1252.62 303.51C1252.23 304.067 1250.91 305.263 1251.53 306.052C1251.71 306.284 1252.04 306.366 1252.34 306.412C1255.35 306.888 1258.67 306.784 1261.52 305.774C1264.84 304.601 1267.74 301.583 1267.63 298.065C1267.6 296.904 1267.25 295.755 1267.15 294.594C1266.66 287.57 1271.13 287.907 1273.64 291.436C1274.65 292.852 1275.35 294.501 1275.58 296.207C1275.71 297.148 1275.57 298.088 1275.35 299.005C1275.18 299.702 1274.52 300.468 1274.68 301.223C1275.07 303.138 1278.22 300.712 1278.9 300.317C1280.47 299.412 1281.92 298.309 1283.25 297.078C1285.97 294.524 1288.18 291.401 1289.77 288.023C1291.06 285.318 1291.95 282.416 1292.27 279.432Z" fill="#1D9E99"/>
<path d="M1270.64 261.53C1263.37 262.691 1259.06 273.465 1255.27 278.701C1252.56 282.427 1249.66 285.597 1245.63 287.895C1245.28 288.093 1244.92 287.535 1245.25 287.303C1252 282.218 1255.84 275.694 1260.54 268.902C1263.17 265.094 1265.59 261.403 1270.52 260.938C1270.9 260.904 1271.02 261.472 1270.64 261.53Z" fill="#37E2D6"/>
<path d="M1277.6 284.343C1277.48 283.182 1277.1 282.323 1276.42 281.336C1276.21 281.034 1276.58 280.709 1276.86 280.976C1277.82 281.893 1278.26 282.892 1278.51 284.192C1278.61 284.772 1277.67 284.923 1277.6 284.343Z" fill="#37E2D6"/>
<path d="M1273.75 277.946C1270.88 274.173 1262.44 270.214 1263.87 264.363C1263.95 264.015 1264.5 264.084 1264.55 264.421C1265.11 267.765 1266.42 269.901 1268.97 272.199C1270.87 273.918 1272.7 275.543 1274.09 277.737C1274.21 277.934 1273.89 278.132 1273.75 277.946Z" fill="#37E2D6"/>
<path d="M1261.51 282.52C1260.11 279.386 1257.29 274.765 1259.09 271.363C1259.28 270.98 1259.86 271.317 1259.75 271.7C1258.67 275.334 1260.2 279.095 1261.54 282.497C1261.55 282.532 1261.52 282.543 1261.51 282.52Z" fill="#37E2D6"/>
<path d="M1238.49 270.319C1241.32 269.158 1244.19 269.286 1247.2 269.901C1251.26 270.725 1254.94 272.745 1258.94 270.783C1259.49 270.505 1259.97 271.294 1259.53 271.689C1257.59 273.407 1254.93 273.14 1252.53 272.559C1247.81 271.433 1243.44 269.077 1238.54 270.458C1238.46 270.47 1238.42 270.354 1238.49 270.319Z" fill="#37E2D6"/>
<path d="M1252.4 251.906C1254.65 253.3 1256.46 254.995 1257.88 257.247C1258.59 258.384 1259.05 259.673 1259.84 260.764C1260.92 262.25 1262.51 263.179 1264.09 264.096C1265.11 264.688 1264.09 266.186 1263.07 265.582C1261.25 264.514 1259.19 263.133 1258.23 261.182C1257.53 259.778 1257.24 258.268 1256.43 256.887C1255.34 255.041 1253.85 253.59 1252.11 252.324C1251.84 252.115 1252.12 251.732 1252.4 251.906Z" fill="#37E2D6"/>
<path d="M1251.24 288.847C1252.27 286.421 1251.99 284.296 1252.27 281.777C1252.31 281.475 1252.76 281.359 1252.89 281.673C1253.83 283.983 1252.93 286.978 1251.95 289.103C1251.75 289.52 1251.05 289.288 1251.24 288.847Z" fill="#37E2D6"/>
<path d="M1281.91 182.274C1282.48 177.526 1279.38 172.627 1274.74 171.315C1273.01 170.827 1271.18 170.734 1269.5 170.142C1268.99 169.956 1268.49 169.701 1268.03 169.399C1268.51 166.427 1268.57 162.863 1266.28 161.087C1263.5 158.916 1257.93 158.707 1254.69 159.554C1252.47 160.135 1250.41 161.075 1249.02 162.979C1248.75 163.339 1248.52 163.745 1248.53 164.187C1248.56 164.79 1249.04 165.278 1249.56 165.591C1250.08 165.905 1250.66 166.125 1251.1 166.543C1251.8 167.193 1252.02 168.285 1251.68 169.179C1251.34 170.072 1250.52 170.746 1249.59 170.955C1249.21 171.036 1248.82 171.059 1248.43 171.048C1247.58 170.757 1246.72 170.502 1245.83 170.514C1244.04 170.537 1242.47 171.675 1241.48 173.091C1240.6 174.321 1240.45 175.784 1240.12 177.212C1239.88 178.187 1238.62 182.494 1240.77 182.227C1241.2 182.169 1241.52 181.798 1241.81 181.473C1242.66 180.544 1243.89 179.766 1245.1 180.103C1245.84 180.312 1246.43 180.962 1246.58 181.717C1246.73 182.471 1246.42 183.295 1245.81 183.771C1245.38 184.097 1244.84 184.247 1244.35 184.456C1243.45 184.828 1242.64 185.397 1241.96 186.093C1240.58 187.185 1239.56 188.763 1238.92 190.424C1238.07 192.641 1237.83 195.032 1237.59 197.389C1239.95 194.951 1243.91 195.497 1247.27 196.008C1250.19 196.449 1254.5 197.587 1256.23 194.289C1256.75 193.279 1257.08 191.91 1258.19 191.654C1258.65 193.233 1257.91 194.916 1256.96 196.263C1256.43 197.018 1255.82 197.726 1255.28 198.469C1255.01 198.84 1254.12 199.641 1254.52 200.175C1254.65 200.338 1254.86 200.384 1255.06 200.408C1257.05 200.721 1259.26 200.651 1261.18 199.966C1263.41 199.177 1265.36 197.157 1265.32 194.789C1265.31 194.011 1265.09 193.245 1265.04 192.467C1264.79 187.765 1267.76 187.986 1269.4 190.342C1270.06 191.283 1270.5 192.397 1270.63 193.535C1270.7 194.162 1270.6 194.8 1270.44 195.404C1270.32 195.88 1269.87 196.379 1269.96 196.89C1270.21 198.167 1272.32 196.542 1272.79 196.275C1273.84 195.671 1274.82 194.928 1275.71 194.092C1277.56 192.374 1279.05 190.284 1280.15 188.02C1281.04 186.221 1281.68 184.271 1281.91 182.274Z" fill="#3DC8A1"/>
<path d="M1267.68 169.863C1264.09 170.049 1262.19 173.253 1260.34 175.97C1257.39 180.3 1254.77 184.329 1250.54 187.544C1250.25 187.765 1250.5 188.218 1250.83 188.044C1253.82 186.523 1255.95 183.887 1257.86 181.194C1260.29 177.746 1263.1 170.966 1267.67 170.374C1267.99 170.316 1268.01 169.84 1267.68 169.863Z" fill="#83F2D0"/>
<path d="M1272.76 185.432C1272.59 184.538 1272.31 183.922 1271.66 183.284C1271.47 183.098 1271.15 183.342 1271.29 183.562C1271.72 184.131 1271.96 184.793 1272.02 185.524C1272.09 186.058 1272.87 185.966 1272.76 185.432Z" fill="#83F2D0"/>
<path d="M1270.07 181.066C1269.23 179.639 1268.08 178.547 1266.86 177.444C1265.12 175.865 1264.35 174.438 1263.9 172.151C1263.85 171.86 1263.43 171.895 1263.35 172.151C1262.15 176.04 1267.94 178.733 1269.79 181.229C1269.91 181.403 1270.18 181.252 1270.07 181.066Z" fill="#83F2D0"/>
<path d="M1261.69 184.514C1260.85 182.216 1259.93 179.72 1260.67 177.282C1260.76 176.957 1260.26 176.736 1260.11 177.05C1258.95 179.464 1260.69 182.309 1261.65 184.526C1261.66 184.549 1261.69 184.538 1261.69 184.514Z" fill="#83F2D0"/>
<path d="M1246.51 176.481C1250.07 175.61 1252.92 177.433 1256.29 178.071C1257.87 178.373 1259.27 178.327 1260.54 177.305C1260.96 176.968 1260.42 176.411 1260 176.608C1257.14 177.955 1254.51 176.341 1251.67 175.912C1249.82 175.633 1248.22 175.68 1246.49 176.365C1246.42 176.399 1246.44 176.492 1246.51 176.481Z" fill="#83F2D0"/>
<path d="M1255.81 164.349C1256.87 165.127 1257.75 166.032 1258.45 167.147C1259.04 168.087 1259.19 169.086 1259.6 170.084C1260.18 171.512 1261.64 172.557 1262.94 173.311C1263.77 173.787 1264.52 172.51 1263.7 172.034C1262.72 171.466 1261.65 170.885 1260.98 169.945C1260.43 169.167 1260.1 168.227 1259.59 167.425C1258.68 165.998 1257.47 164.871 1256.02 164.001C1255.79 163.85 1255.6 164.187 1255.81 164.349Z" fill="#83F2D0"/>
<path d="M1255.01 188.868C1255.73 187.347 1256.31 185.49 1255.75 183.841C1255.66 183.551 1255.27 183.62 1255.24 183.911C1255.08 185.559 1255.17 186.976 1254.5 188.566C1254.34 188.914 1254.84 189.228 1255.01 188.868Z" fill="#83F2D0"/>
<path d="M1246.53 341.089C1246.53 341.089 1278.92 349.506 1314.44 340.381V348.623H1246.53V341.089Z" fill="#69AAEC"/>
<path d="M1245.34 341.159C1249.18 342.459 1253.18 343.144 1257.18 343.678C1262.17 344.328 1267.2 344.688 1272.24 344.839C1282.51 345.141 1292.87 344.781 1303.05 343.364C1305.36 343.039 1307.66 342.668 1309.94 342.134C1311.79 341.693 1313.69 341.217 1315.43 340.416C1315.8 340.242 1315.53 339.673 1315.16 339.766C1311.6 340.683 1308.03 341.449 1304.37 341.983C1299.61 342.68 1294.81 343.074 1290.01 343.33C1279.73 343.852 1269.35 343.782 1259.09 342.738C1254.55 342.273 1249.94 341.635 1245.55 340.369C1245.05 340.23 1244.85 340.996 1245.34 341.159Z" fill="#3479B2"/>
<path d="M1375.48 259.069C1375.48 259.069 1375.03 315.967 1375.9 322.595C1376.76 329.224 1381.72 399.774 1381.72 399.774C1381.72 399.774 1387.76 400.993 1389.98 399.751C1391.12 390.034 1393.55 352.164 1394.08 323.396C1392.78 318.079 1404.5 259.569 1404.5 259.569L1375.48 259.069Z" fill="#F9AB87"/>
<path d="M1404.5 267.591C1404.5 267.591 1414.47 307.167 1420.42 322.143C1426.38 337.13 1457.34 390.858 1458.3 393.133C1463.17 393.482 1465.78 390.092 1465.78 390.092C1465.78 390.092 1450.91 333.288 1436.56 316.593C1434.75 305.727 1430.6 259.719 1430.6 259.719L1404.5 267.591Z" fill="#F9AB87"/>
<path d="M1413.62 208L1408.59 239.461C1408.59 239.461 1408.01 242.828 1407.13 248.017C1405.57 257.049 1403.09 271.608 1401.05 283.472C1399.79 290.798 1398.72 297.09 1398.15 300.433C1396.13 312.286 1394.83 316.408 1396.3 337.328C1397.76 358.248 1392.43 389.628 1392.43 389.628C1383.17 391.206 1379.67 389.709 1379.67 389.709C1379.67 389.709 1375.64 343.991 1374.46 325.451C1373.3 306.911 1373.11 298.762 1372.89 275.322C1372.66 251.872 1375.35 218.019 1375.35 218.019L1413.62 208Z" fill="#004C80"/>
<path d="M1407.13 248.017C1405.57 257.05 1403.09 271.608 1401.04 283.472C1393.78 265.281 1392.44 235.967 1392.44 235.967L1407.13 248.017Z" fill="#332027"/>
<path d="M1432.47 213.375C1432.47 213.375 1435.71 225.066 1434.05 242.422C1432.39 259.766 1436.38 305.46 1437.41 308.792C1438.43 312.124 1447.6 328.307 1453.07 343.248C1458.53 358.19 1464.63 380.445 1464.63 380.445C1464.63 380.445 1463.22 384.38 1453.62 385.901C1453.62 385.901 1419.14 325.892 1414.78 317.011C1410.41 308.119 1398.97 261.322 1396.01 250.513C1393.05 239.705 1389.42 221.92 1389.42 221.92" fill="#004C80"/>
<path d="M1433.72 223.429C1404.28 226.389 1386.06 222.814 1374.71 221.502C1374.31 218.321 1375.67 216.986 1376.77 207.188C1377.73 198.608 1376.39 175.68 1377.26 167.089C1378.06 159.148 1378.34 151.045 1379.92 143.244C1381.51 135.477 1383.74 127.513 1388.87 121.29C1389.71 120.28 1390.63 119.305 1391.83 118.736C1393.99 117.726 1396.53 118.295 1398.84 118.887C1405.21 120.513 1409.86 118.11 1414.55 118.423C1416.83 119.12 1422.28 120.896 1424.54 122.695C1426.49 127.304 1420.11 133.945 1420.98 136.51C1422.41 140.794 1423.44 145.194 1424.47 149.582L1430.23 164.106C1431.12 175.181 1430.85 190.83 1431.38 203.914C1431.52 208.035 1436.14 221.722 1433.72 223.429Z" fill="#BDDBF3"/>
<path d="M1392.06 116.682L1386.67 169.806C1384.44 174.589 1384.33 183.644 1370.33 188.717C1367.81 189.901 1364.95 190.459 1361.81 190.969C1362.34 184.073 1358.24 177.328 1355.82 176.226L1364.59 170.723C1367.29 160.321 1368.66 143.859 1372.94 132.145C1375.57 124.936 1379.8 120.768 1392.06 116.682Z" fill="#BDDBF3"/>
<path d="M1394.59 106.732C1394.64 108.485 1394.42 112.56 1393.09 115.091C1392.4 116.426 1390.98 116.809 1390.07 117.378C1390.47 119.526 1392.55 128.767 1397.89 129.44C1403.24 130.114 1412.21 121.279 1414.53 118.411C1413.04 118.098 1409.97 117.506 1409.17 115.544C1406.55 109.147 1407.04 96.8877 1407.57 95.1463" fill="#F49B6E"/>
<path d="M1409.06 69.7915C1412.04 74.1682 1413.95 79.3343 1414.11 84.6282C1414.18 86.9152 1413.91 89.2023 1413.65 91.4777C1413.26 94.9953 1412.85 98.5129 1412.46 102.031C1412.16 104.666 1411.89 107.475 1413.12 109.82C1413.94 111.388 1415.39 112.641 1415.86 114.348C1413.27 112.247 1410.59 110.041 1409.15 107.034C1407.46 103.54 1407.67 99.43 1408.35 95.6106C1409.02 91.7911 1410.12 88.0065 1410.09 84.1174" fill="#280A26"/>
<path d="M1414.5 93.4398C1414.24 96.2144 1414 99.0122 1414.41 101.764C1414.81 104.515 1415.93 107.255 1418.03 109.089C1415.31 107.824 1413.42 105.188 1412.47 102.344C1411.53 99.4998 1411.44 96.4466 1411.59 93.4514" fill="#280A26"/>
<path d="M1375.34 80.4952C1374.82 84.9184 1378.23 88.7146 1379.8 92.8824C1380.88 95.7499 1381.09 98.8612 1381.79 101.833C1382.49 104.817 1383.85 107.858 1386.49 109.437C1388.72 110.772 1391.51 110.819 1394.08 110.331C1400.05 109.193 1405.42 105.258 1408.3 99.8944C1411.18 94.5425 1411.49 87.8788 1409.14 82.2715C1408.29 80.2515 1407.12 78.3707 1405.77 76.641C1402.31 72.1946 1397.37 68.5609 1391.75 68.0617C1386.13 67.5625 1380.02 70.9408 1378.65 76.4088" fill="#FFB082"/>
<path d="M1384.04 66.1344C1383.56 65.7745 1382.98 66.0415 1382.53 66.3782C1377.5 70.0583 1376.1 79.485 1383.21 81.5863C1385.85 82.3642 1388.66 82.0623 1391.39 82.2481C1393.98 82.4222 1396.53 83.0375 1398.92 84.0591C1397.98 82.8169 1396.82 81.7489 1395.5 80.9246C1398.05 80.971 1400.56 82.19 1402.16 84.1636C1403.58 85.905 1404.42 88.2733 1406.43 89.2717C1407.3 87.0311 1407.79 84.6396 1407.86 82.2248C1407.92 80.2629 1407.67 78.2312 1406.75 76.5015C1406.04 75.1896 1404.96 74.1099 1403.84 73.1232C1401.28 70.8593 1398.32 69.2457 1395.87 66.9006C1393.5 64.6368 1389.15 62.5239 1386.23 64.927" fill="#280A26"/>
<path d="M1382.81 67.0286C1380.66 67.284 1378.71 68.4682 1377.16 69.9774C1371.77 75.2596 1370.59 83.9666 1376.6 89.3069C1377.34 89.9686 1379.13 91.1295 1379.46 92.0815C1377.69 87.1359 1377.57 85.5222 1377.71 82.0975C1377.86 78.6844 1380.37 75.3989 1382.15 72.485" fill="#280A26"/>
<path d="M1387.4 102.019C1387.29 102.599 1387.97 105.258 1390.41 105.525C1392.45 105.757 1395.97 103.9 1395.32 101.961C1394.9 101.241 1387.52 101.438 1387.4 102.019Z" fill="#DB7775"/>
<path d="M1389.51 94.3219C1389.42 94.763 1389.09 94.9952 1388.74 95.239C1388.41 95.4712 1388.08 95.7614 1387.88 96.1097C1387.62 96.5741 1387.68 97.1313 1387.95 97.5841C1388.1 97.8279 1388.31 98.0485 1388.54 98.211C1388.8 98.3851 1389.05 98.4664 1389.35 98.5128C1389.49 98.5361 1389.63 98.3619 1389.51 98.2574C1389.3 98.0833 1389.1 97.9208 1388.88 97.7698C1388.66 97.6189 1388.46 97.4564 1388.32 97.2126C1388.09 96.8179 1388.15 96.3999 1388.43 96.0517C1388.86 95.5176 1389.54 95.0997 1389.6 94.3335C1389.61 94.2755 1389.52 94.2522 1389.51 94.3219Z" fill="#DB7775"/>
<path d="M1381.16 89.0276C1381.63 88.0756 1382.49 87.7738 1383.48 89.4571C1384.1 90.5136 1384.51 92.6961 1382.97 93.1721C1380.61 93.8919 1380.38 90.5832 1381.16 89.0276Z" fill="#471A12"/>
<path d="M1381.13 90.0726C1381.34 89.6431 1381.73 89.5154 1382.17 90.2584C1382.45 90.7344 1382.62 91.6979 1381.94 91.9069C1380.89 92.232 1380.79 90.7692 1381.13 90.0726Z" fill="white"/>
<path d="M1385.45 84.9529C1384.34 83.5482 1380.24 82.7587 1379.66 85.127C1379.61 85.336 1379.86 85.4753 1380.01 85.336C1380.76 84.6278 1381.33 84.1983 1382.44 84.2331C1383.47 84.2679 1384.42 84.6859 1385.34 85.1154C1385.43 85.1619 1385.52 85.0342 1385.45 84.9529Z" fill="#4F2118"/>
<path d="M1395.97 87.101C1396.52 86.0794 1397.48 85.7543 1398.56 87.5306C1399.25 88.6451 1399.69 90.9553 1397.96 91.4661C1395.32 92.2555 1395.09 88.7495 1395.97 87.101Z" fill="#471A12"/>
<path d="M1395.94 88.2037C1396.18 87.7509 1396.6 87.6116 1397.09 88.4011C1397.39 88.9003 1397.59 89.9219 1396.82 90.1425C1395.65 90.4907 1395.54 88.9467 1395.94 88.2037Z" fill="white"/>
<path d="M1393.29 84.3145C1394.6 83.8733 1395.98 83.6992 1397.35 83.9778C1398.68 84.2564 1399.57 84.9878 1400.71 85.6031C1400.89 85.696 1401.14 85.4986 1401.01 85.3013C1399.42 82.9097 1395.47 82.7588 1393.15 83.9546C1392.96 84.0707 1393.09 84.3841 1393.29 84.3145Z" fill="#4F2118"/>
<path d="M1395.21 96.3653C1395.03 95.7036 1395.21 94.9606 1395.93 94.2176C1397.17 92.9405 1399.27 92.511 1400.98 92.778C1401.73 92.8941 1402.48 93.312 1402.8 94.0202C1402.98 94.4497 1403 94.9373 1402.91 95.4017C1402.64 97.0851 1401.21 98.5594 1399.49 98.7684C1397.92 98.9658 1395.65 98.037 1395.21 96.3653Z" fill="#F79386"/>
<path d="M1381.5 97.2937C1381.37 96.7713 1381.46 96.1908 1381.88 95.622C1382.6 94.6468 1383.86 94.3565 1384.91 94.6119C1385.37 94.728 1385.84 95.0763 1386.05 95.6336C1386.17 95.9818 1386.19 96.3649 1386.15 96.7248C1386.02 98.0483 1385.2 99.1744 1384.17 99.3021C1383.21 99.4066 1381.81 98.6171 1381.5 97.2937Z" fill="#F79386"/>
<path d="M1379.6 68.2706C1379.53 67.3186 1379.81 66.3202 1380.35 65.5308C1381.53 63.7778 1383.55 62.8606 1385.28 61.781C1391.39 57.9847 1400 58.333 1406.44 61.572C1408.56 62.6401 1412.4 65.8326 1414.06 69.1181C1424.73 90.1889 1413.77 103.145 1410.07 103.122C1405.93 103.098 1405.04 98.6637 1405.08 95.3086C1405.13 92.3482 1405.54 88.7958 1403.46 86.3579C1401.07 83.5484 1399.69 79.845 1396.66 77.5928C1395.37 76.6409 1393.88 75.9908 1392.38 75.4103C1390.14 74.5396 1387.83 73.9243 1385.56 73.1581C1383.78 72.566 1382.02 71.8114 1380.64 70.5344C1379.99 69.9423 1379.66 69.1181 1379.6 68.2706Z" fill="#280A26"/>
<path d="M1403.74 93.4047C1403.31 92.4411 1403.96 90.8158 1404.35 90.4559C1405.15 89.7362 1406.41 89.9219 1407.53 90.2934C1408.22 90.5256 1408.71 91.1293 1409.07 91.7678C1410.3 93.9852 1410.22 96.8875 1408.86 99.0352C1408.31 99.9059 1407.51 100.684 1406.49 100.846C1405.48 100.997 1404.31 100.289 1404.3 99.2674" fill="#FFB082"/>
<path d="M1319.52 189.344C1319.52 189.344 1315.25 190.598 1314.2 191.434C1313.67 191.956 1311.9 194.592 1311.69 195.869C1311.51 196.937 1312.38 200.141 1312.38 200.141C1312.38 200.141 1313.36 200.594 1313.92 199.224C1314.49 197.854 1313.86 196.287 1313.86 196.287L1315.96 193.918L1319.55 193.907L1319.95 191.527L1319.52 189.344Z" fill="#FFB082"/>
<path d="M1313.58 198.376C1313.58 198.376 1315.41 198.225 1316.33 197.355C1317.25 196.484 1323.3 194.847 1323.3 194.847L1318.77 191.805C1318.77 191.805 1315.26 192.281 1315.06 192.479C1314.85 192.676 1313.28 193.895 1313.28 194.046C1313.28 194.197 1312.92 195.694 1312.92 195.694L1313.58 198.376Z" fill="#FFB082"/>
<path d="M1310.97 197.598C1310.97 197.598 1313.21 197.006 1314.3 199.874C1314.3 199.874 1317.39 199.061 1317.75 198.376C1317.75 198.376 1318.74 192.885 1313.67 190.319L1310.97 197.598Z" fill="#42C6A1"/>
<path d="M1332.41 191.504L1331.84 194.777C1331.84 194.777 1330.01 195.102 1328.35 195.474C1326.07 195.427 1319.93 193.547 1318.26 193.941L1319.54 189.356C1320.13 189.17 1321.74 188.822 1322.15 188.857C1328.6 189.356 1331.1 188.334 1331.1 188.334L1332.41 191.504Z" fill="#FFB082"/>
<path d="M1321.23 193.616C1321.23 193.616 1319.8 194.29 1319.05 195.718C1318.11 197.494 1314.63 198.353 1313.75 198.643C1312.41 199.096 1311.98 199.92 1311.98 200.118C1311.98 200.327 1312.13 200.524 1312.9 200.605C1313.66 200.687 1316.89 200.582 1317.96 200.431C1319.03 200.28 1323.07 198.574 1324.04 198.086C1325 197.598 1328.34 195.462 1328.34 195.462L1324.47 193.756L1321.23 193.616Z" fill="#FFB082"/>
<path d="M1352.74 178.757L1329.23 189.135L1331.83 194.777C1331.83 194.777 1353.11 191.805 1357.07 190.958C1361.02 190.122 1361.64 183.679 1361.64 183.679L1355.82 177.677L1352.74 178.757Z" fill="#FFB082"/>
<path d="M1398.06 128.86C1397.36 133.712 1396.92 138.623 1396.73 143.534C1396.63 145.983 1396.62 148.445 1396.73 150.894C1396.77 152.113 1396.84 153.344 1396.96 154.563C1397.06 155.747 1397.17 157.035 1397.55 158.162C1397.65 158.487 1398.13 158.429 1398.14 158.08C1398.21 156.885 1398.04 155.619 1397.95 154.423C1397.86 153.204 1397.79 151.974 1397.77 150.755C1397.71 148.352 1397.76 145.937 1397.85 143.534C1398.04 138.67 1398.54 133.817 1398.76 128.953C1398.77 128.558 1398.12 128.465 1398.06 128.86Z" fill="#598FB5"/>
<path d="M1432.03 208C1432 208.012 1431.96 208.012 1431.93 208.023C1429.21 208.465 1427.22 210.833 1427.05 213.573L1427.01 214.025C1425.82 228.317 1428.21 299.18 1428.21 299.18C1399.19 304.88 1371.52 299.18 1371.52 299.18C1371.52 299.18 1371.23 263.295 1371.52 249.074C1371.79 235.979 1376.26 195.822 1376.97 189.541C1377.03 188.973 1377.01 187.568 1377.04 186.999C1377.63 174.484 1374.23 158.51 1373.94 153.82C1373.64 149.025 1377.35 139.784 1377.35 139.784C1379.27 136.29 1379.51 124.646 1379.53 122.614H1379.54C1379.54 122.614 1380.68 121.395 1382.49 120.687C1382.73 123.31 1381.39 145.496 1393.26 147.493C1406.15 149.675 1418.06 122.73 1419.29 119.967C1419.29 119.967 1421.18 120.431 1422.15 121.232C1421.54 123.252 1412.2 147.783 1415.87 161.273C1416.86 164.918 1418.89 170.909 1420.83 177.804C1422.78 184.7 1424.74 192.467 1425.95 199.56C1428.04 203.148 1431.31 202.892 1431.31 202.892C1431.95 204.239 1432.03 208 1432.03 208Z" fill="#42A3E8"/>
<path d="M1379.71 202.892C1379.71 202.892 1378.42 204.529 1377.9 206.189C1377.56 207.257 1378.7 207.246 1379.71 207.13C1380.73 207.025 1380.54 204.587 1380.54 204.587L1379.71 202.892Z" fill="#F29E8B"/>
<path d="M1376.21 230.824L1364.95 201.499C1363.67 198.156 1360.37 196.078 1356.8 196.252C1355.88 196.298 1354.99 196.368 1354.1 196.449H1354.11C1354.11 196.449 1330.43 198.225 1329.82 200.745C1329.23 203.217 1330.34 214.56 1330.34 214.56C1330.59 217.102 1330.8 218.971 1330.8 218.971L1333.04 240.959C1333.47 245.162 1337.01 248.331 1341.23 248.331C1345.15 248.331 1350.51 247.89 1357.1 246.357C1363.66 244.825 1368.64 242.863 1372.15 241.133C1375.98 239.264 1377.75 234.795 1376.21 230.824Z" fill="#F7BF38"/>
<path d="M1333.98 232.287C1333.98 232.287 1321.45 224.532 1310.06 206.7C1310.06 206.7 1308.21 207.269 1306.32 208.929C1306.32 208.929 1322.96 238.73 1336.75 242.294" fill="#F7BF38"/>
<path d="M1375.59 232.101C1374.9 232.264 1374.17 232.368 1373.41 232.403L1373.26 229.501C1377.85 229.268 1380.59 226.169 1381.4 220.318C1382.91 209.509 1377.27 195.59 1373.37 194.255C1366.84 192.026 1362.34 199.723 1362.14 200.048L1359.62 198.608C1361.62 195.102 1367.26 189.1 1374.31 191.503C1380.32 193.558 1385.81 209.66 1384.27 220.712C1383.4 227.028 1380.33 230.998 1375.59 232.101Z" fill="#F7BF38"/>
<path d="M1331.32 204.645C1334.34 205.771 1337.93 205.667 1341.09 205.527C1345.74 205.33 1350.42 204.564 1354.87 203.24C1357.37 202.497 1360.05 201.638 1362.25 200.199C1362.41 200.094 1362.3 199.793 1362.11 199.874C1359.96 200.733 1357.87 201.685 1355.64 202.37C1353.37 203.066 1351.04 203.6 1348.7 204.018C1344.54 204.75 1340.26 205.133 1336.03 204.924C1334.5 204.843 1332.9 204.715 1331.42 204.25C1331.17 204.169 1331.08 204.552 1331.32 204.645Z" fill="#FF6724"/>
<path d="M1334.99 244.279C1345.81 245.719 1357.14 244.36 1367.2 240.1C1370.15 238.846 1373.17 237.395 1375.74 235.444C1375.91 235.305 1375.76 235.027 1375.56 235.143C1373.07 236.513 1370.64 237.94 1368.04 239.101C1365.45 240.251 1362.77 241.191 1360.03 241.934C1354.77 243.374 1349.35 244.117 1343.9 244.233C1340.93 244.291 1337.96 244.163 1335 243.884C1334.72 243.85 1334.73 244.244 1334.99 244.279Z" fill="#FF6724"/>
<path d="M1416.35 186.999H1412.29C1412.29 186.999 1397.06 197.656 1391.11 200.744C1388.32 202.196 1386.9 201.418 1384.55 201.383C1383.6 201.371 1382.64 201.441 1381.72 201.604C1381.72 201.604 1382.08 202.579 1382.05 203.229C1382.02 204.192 1381.02 205.121 1379.92 205.574H1379.93C1379.45 205.806 1378.65 206.154 1378.52 206.387C1378.14 207.118 1378.34 207.919 1379 208.418C1379 208.418 1378.69 209.115 1378.98 209.707C1379.22 210.194 1379.66 210.392 1379.66 210.392C1379.66 210.392 1379.43 211.007 1379.64 211.564C1379.85 212.122 1380.46 212.423 1380.46 212.423C1380.46 212.423 1380.06 213.004 1380.38 213.549C1380.79 214.223 1382.82 214.118 1384.68 213.619C1388.81 212.505 1392.98 207.814 1396.09 206.7L1416.61 199.212H1418.8L1420.25 197.146V192.502L1416.35 186.999Z" fill="#FFB082"/>
<path d="M1442.56 186.709C1440.16 191.77 1431.91 195.88 1424.24 199.212C1423.03 190.528 1418.76 185.966 1415.2 183.957C1416.11 183.342 1417.07 182.715 1417.95 182.077C1419.2 181.194 1420.64 179.906 1421.34 178.466C1422.8 175.448 1421.84 150.952 1420.41 145.101L1419.28 134.223L1424.52 122.683C1428.55 125.11 1431.73 128.047 1434.32 131.762C1445.06 147.237 1448.94 173.265 1442.56 186.709Z" fill="#BDDBF3"/>
<path d="M1364.89 180.718C1364.79 180.533 1364.68 180.382 1364.58 180.242C1362.72 176.876 1359.67 174.31 1357.23 174.554C1355.88 174.693 1354.9 175.39 1354.2 176.179C1353.66 176.353 1352.85 176.748 1352.73 177.677C1352.52 179.186 1352.73 178.745 1352.73 178.745C1357.23 178.896 1358.68 183.098 1359.18 186.686C1359.68 190.273 1357.06 190.958 1357.06 190.958C1357.06 190.958 1358.04 193.129 1361.18 192.316C1361.18 192.316 1363.22 192.513 1364.95 191.492C1365.97 190.9 1368.1 186.094 1364.89 180.718Z" fill="#96C2E0"/>
<path d="M1424.45 188.961C1424.34 188.775 1424.24 188.624 1424.14 188.485C1422.28 185.118 1419.22 182.553 1416.79 182.797C1415.44 182.936 1414.45 183.632 1413.76 184.422C1413.22 184.596 1412.41 184.991 1412.28 185.919C1412.07 187.429 1412.28 186.988 1412.28 186.988C1416.79 187.138 1418.24 191.341 1418.74 194.928C1419.24 198.516 1416.61 199.201 1416.61 199.201C1416.61 199.201 1417.6 201.371 1420.73 200.559C1420.73 200.559 1422.78 200.756 1424.51 199.735C1425.53 199.142 1427.65 194.336 1424.45 188.961Z" fill="#96C2E0"/>
<path d="M1414.42 118.225C1413.51 118.713 1412.82 119.456 1412.06 120.141C1411.23 120.907 1410.41 121.72 1409.58 122.498C1407.94 124.007 1406.26 125.458 1404.34 126.596C1403.32 127.211 1402.25 127.745 1401.11 128.128C1400.05 128.5 1398.93 128.836 1397.81 128.558C1395.68 128.012 1394.4 126.039 1393.46 124.227C1392.3 121.987 1391.36 119.63 1390.61 117.215C1390.39 116.507 1389.27 116.809 1389.49 117.517C1390.24 119.816 1391.14 122.08 1392.24 124.239C1393.24 126.189 1394.42 128.256 1396.44 129.301C1398.62 130.427 1400.98 129.579 1403.05 128.616C1405.32 127.559 1407.33 126.05 1409.18 124.39C1410.19 123.496 1411.17 122.556 1412.13 121.615C1413.07 120.698 1414.11 119.711 1414.69 118.516C1414.8 118.33 1414.62 118.121 1414.42 118.225Z" fill="#598FB5"/>
<path d="M1395.88 132.424C1395.99 132.424 1396.11 132.401 1396.2 132.354C1396.31 132.319 1396.4 132.261 1396.48 132.18C1396.56 132.099 1396.62 132.006 1396.66 131.901C1396.71 131.797 1396.74 131.692 1396.73 131.576C1396.71 131.495 1396.7 131.425 1396.69 131.344C1396.64 131.193 1396.58 131.077 1396.47 130.961C1396.41 130.915 1396.35 130.868 1396.3 130.822C1396.16 130.74 1396.02 130.706 1395.87 130.706C1395.75 130.706 1395.63 130.729 1395.54 130.775C1395.44 130.81 1395.34 130.868 1395.26 130.949C1395.18 131.031 1395.12 131.124 1395.09 131.228C1395.03 131.332 1395.01 131.437 1395.02 131.553C1395.03 131.634 1395.04 131.704 1395.05 131.785C1395.1 131.936 1395.17 132.052 1395.27 132.168C1395.33 132.215 1395.39 132.261 1395.45 132.308C1395.59 132.377 1395.73 132.424 1395.88 132.424Z" fill="#598FB5"/>
<path d="M1395.11 140.748C1396.34 140.748 1396.34 138.832 1395.11 138.832C1393.88 138.832 1393.87 140.748 1395.11 140.748Z" fill="#598FB5"/>
<path d="M1377.18 139.68C1376.07 142.094 1375.27 144.66 1374.67 147.249C1374.25 149.025 1373.96 150.848 1373.77 152.67C1373.67 153.646 1373.61 154.621 1373.58 155.596C1373.57 156.049 1373.54 156.513 1373.55 156.966C1373.57 157.523 1373.73 158.057 1373.84 158.603C1375.26 165.325 1376.4 172.197 1376.79 179.07C1376.91 181.16 1376.99 183.296 1376.8 185.385C1376.78 185.676 1377.22 185.664 1377.26 185.385C1377.49 183.632 1377.49 181.856 1377.44 180.103C1377.39 177.317 1377.2 174.519 1376.87 171.756C1376.44 168.146 1375.86 164.547 1375.14 160.983C1374.96 160.077 1374.76 159.172 1374.56 158.266C1374.31 157.094 1374.31 155.979 1374.37 154.795C1374.45 152.868 1374.67 150.952 1375.01 149.048C1375.55 145.937 1376.29 142.814 1377.55 139.912C1377.64 139.645 1377.28 139.436 1377.18 139.68Z" fill="#396F91"/>
<path d="M1419.69 140.19C1419.7 141.711 1419.93 143.255 1420.06 144.764C1420.32 147.748 1420.59 150.743 1420.84 153.727C1421.41 160.715 1421.83 167.751 1421.54 174.763C1421.41 177.862 1420.33 180.742 1417.45 182.158C1417.18 182.286 1417.41 182.669 1417.68 182.553C1419.85 181.601 1421.21 179.778 1421.81 177.491C1422.26 175.819 1422.35 174.02 1422.41 172.302C1422.46 170.514 1422.45 168.726 1422.42 166.95C1422.26 159.938 1421.62 152.914 1420.78 145.96C1420.55 144.056 1420.19 142.129 1420.13 140.213C1420.11 139.923 1419.69 139.923 1419.69 140.19Z" fill="#598FB5"/>
<path d="M1363.83 77.6397C1360.02 79.0676 1348.61 83.7926 1349.53 85.4411C1350.46 87.0896 1420.68 78.104 1435.41 74.273C1435.41 74.273 1441.38 71.4519 1415.87 70.9991C1389.55 70.5232 1376.11 73.0192 1363.83 77.6397Z" fill="#F7BF38"/>
<path d="M1371.81 77.4888C1371.81 77.4888 1371.81 63.07 1383.82 58.8674C1395.67 54.7113 1412.33 57.4163 1415.67 71.6377L1371.81 77.4888Z" fill="#F7BF38"/>
<path d="M1371.72 75.4688C1373.24 76.0492 1374.91 76.2466 1376.51 76.4091C1379.06 76.6645 1381.62 76.7342 1384.19 76.7342C1390.94 76.7226 1397.74 76.0028 1404.35 74.6329C1406.28 74.2382 1408.21 73.7738 1410.1 73.2282C1411.96 72.7058 1413.92 72.1137 1415.64 71.2082C1415.95 71.0456 1415.73 70.5697 1415.41 70.6509C1413.68 71.0689 1411.98 71.6493 1410.27 72.1369C1408.59 72.6129 1406.9 73.0192 1405.19 73.3791C1401.78 74.0989 1398.33 74.6097 1394.86 74.9928C1389.08 75.6197 1383.17 75.9099 1377.35 75.5384C1375.55 75.4223 1373.64 75.3411 1371.91 74.8071C1371.46 74.6561 1371.3 75.3063 1371.72 75.4688Z" fill="#932318"/>
</svg>
